<mxfile host="www.draw.io" modified="2023-04-22T17:56:56.494Z" agent="Mozilla/5.0 (Windows NT 10.0; Win64; x64) AppleWebKit/537.36 (KHTML, like Gecko) Chrome/112.0.0.0 Safari/537.36" etag="WlaWXzji_4QHLtFMZdL_" version="21.2.1" type="device">
  <diagram id="md6VTnPGozkwx2MKW_Uu" name="inicio">
    <mxGraphModel dx="3600" dy="515" grid="1" gridSize="10" guides="1" tooltips="1" connect="1" arrows="1" fold="1" page="1" pageScale="1" pageWidth="850" pageHeight="1100" math="0" shadow="0">
      <root>
        <mxCell id="0" />
        <mxCell id="1" parent="0" />
        <mxCell id="Atl8Sy2RL6itN3JtaUqr-5" value="Informações da conta" style="text;html=1;align=center;verticalAlign=middle;resizable=0;points=[];autosize=1;strokeColor=none;fillColor=none;labelBackgroundColor=none;rounded=1;fontColor=#143642;" parent="1" vertex="1">
          <mxGeometry x="-818" y="623" width="140" height="30" as="geometry" />
        </mxCell>
        <mxCell id="Atl8Sy2RL6itN3JtaUqr-6" value="Formulário da Conta" style="text;html=1;align=center;verticalAlign=middle;resizable=0;points=[];autosize=1;strokeColor=none;fillColor=none;labelBackgroundColor=none;rounded=1;fontColor=#143642;" parent="1" vertex="1">
          <mxGeometry x="-585" y="599" width="130" height="30" as="geometry" />
        </mxCell>
        <mxCell id="Atl8Sy2RL6itN3JtaUqr-7" value="" style="endArrow=none;html=1;rounded=1;labelBackgroundColor=none;fontColor=default;strokeColor=#A8201A;" parent="1" edge="1">
          <mxGeometry width="50" height="50" relative="1" as="geometry">
            <mxPoint x="-620" y="630" as="sourcePoint" />
            <mxPoint x="-440" y="630" as="targetPoint" />
          </mxGeometry>
        </mxCell>
        <mxCell id="Atl8Sy2RL6itN3JtaUqr-8" value="" style="endArrow=classic;html=1;rounded=1;edgeStyle=orthogonalEdgeStyle;labelBackgroundColor=none;fontColor=default;strokeColor=#A8201A;" parent="1" target="1BL5ixbeq6saKE9p_KcN-16" edge="1">
          <mxGeometry width="50" height="50" relative="1" as="geometry">
            <mxPoint x="-640" y="450" as="sourcePoint" />
            <mxPoint x="-480" y="396" as="targetPoint" />
            <Array as="points">
              <mxPoint x="-630" y="450" />
              <mxPoint x="-630" y="410" />
            </Array>
          </mxGeometry>
        </mxCell>
        <mxCell id="Atl8Sy2RL6itN3JtaUqr-9" value="Alterar login" style="text;html=1;align=center;verticalAlign=middle;resizable=0;points=[];autosize=1;strokeColor=none;fillColor=none;labelBackgroundColor=none;rounded=1;fontColor=#143642;" parent="1" vertex="1">
          <mxGeometry x="-569" y="629" width="90" height="30" as="geometry" />
        </mxCell>
        <mxCell id="6Ke4Tf1bYYIwLAMuj2lj-1" value="" style="endArrow=none;dashed=1;html=1;rounded=1;labelBackgroundColor=none;fontColor=default;strokeColor=#A8201A;" parent="1" edge="1">
          <mxGeometry width="50" height="50" relative="1" as="geometry">
            <mxPoint x="-830" y="650" as="sourcePoint" />
            <mxPoint x="-660" y="650" as="targetPoint" />
            <Array as="points" />
          </mxGeometry>
        </mxCell>
        <mxCell id="6Ke4Tf1bYYIwLAMuj2lj-4" value="Currículo&amp;nbsp;" style="text;html=1;align=center;verticalAlign=middle;resizable=0;points=[];autosize=1;strokeColor=none;fillColor=none;labelBackgroundColor=none;rounded=1;fontColor=#143642;" parent="1" vertex="1">
          <mxGeometry x="-787" y="884" width="80" height="30" as="geometry" />
        </mxCell>
        <mxCell id="6Ke4Tf1bYYIwLAMuj2lj-7" value="Meus interesses" style="text;html=1;align=center;verticalAlign=middle;resizable=0;points=[];autosize=1;strokeColor=none;fillColor=none;labelBackgroundColor=none;rounded=1;fontColor=#143642;" parent="1" vertex="1">
          <mxGeometry x="-797" y="986" width="110" height="30" as="geometry" />
        </mxCell>
        <mxCell id="6Ke4Tf1bYYIwLAMuj2lj-30" value="Formulário Currículo" style="text;html=1;align=center;verticalAlign=middle;resizable=0;points=[];autosize=1;strokeColor=none;fillColor=none;labelBackgroundColor=none;rounded=1;fontColor=#143642;" parent="1" vertex="1">
          <mxGeometry x="-595" y="866" width="130" height="30" as="geometry" />
        </mxCell>
        <mxCell id="6Ke4Tf1bYYIwLAMuj2lj-32" value="Adicionar Experiência" style="text;html=1;align=center;verticalAlign=middle;resizable=0;points=[];autosize=1;strokeColor=none;fillColor=none;labelBackgroundColor=none;rounded=1;fontColor=#143642;" parent="1" vertex="1">
          <mxGeometry x="-604" y="890" width="140" height="30" as="geometry" />
        </mxCell>
        <mxCell id="6Ke4Tf1bYYIwLAMuj2lj-33" value="" style="endArrow=none;dashed=1;html=1;rounded=1;labelBackgroundColor=none;fontColor=default;strokeColor=#A8201A;" parent="1" edge="1">
          <mxGeometry width="50" height="50" relative="1" as="geometry">
            <mxPoint x="-620" y="921" as="sourcePoint" />
            <mxPoint x="-430" y="920" as="targetPoint" />
          </mxGeometry>
        </mxCell>
        <mxCell id="6Ke4Tf1bYYIwLAMuj2lj-34" value="&amp;nbsp; &amp;nbsp; &amp;nbsp;Cancelar&amp;nbsp;" style="text;html=1;align=center;verticalAlign=middle;resizable=0;points=[];autosize=1;strokeColor=none;fillColor=none;labelBackgroundColor=none;rounded=1;fontColor=#143642;" parent="1" vertex="1">
          <mxGeometry x="-584.5" y="926" width="90" height="30" as="geometry" />
        </mxCell>
        <mxCell id="6Ke4Tf1bYYIwLAMuj2lj-46" value="" style="endArrow=none;dashed=1;html=1;rounded=1;labelBackgroundColor=none;fontColor=default;strokeColor=#A8201A;" parent="1" edge="1">
          <mxGeometry width="50" height="50" relative="1" as="geometry">
            <mxPoint x="-620" y="660" as="sourcePoint" />
            <mxPoint x="-440" y="660" as="targetPoint" />
          </mxGeometry>
        </mxCell>
        <mxCell id="6Ke4Tf1bYYIwLAMuj2lj-48" value="" style="endArrow=none;dashed=1;html=1;rounded=1;labelBackgroundColor=none;fontColor=default;strokeColor=#A8201A;" parent="1" edge="1">
          <mxGeometry width="50" height="50" relative="1" as="geometry">
            <mxPoint x="-830" y="910" as="sourcePoint" />
            <mxPoint x="-660" y="909" as="targetPoint" />
          </mxGeometry>
        </mxCell>
        <mxCell id="6Ke4Tf1bYYIwLAMuj2lj-49" value="" style="endArrow=none;dashed=1;html=1;rounded=1;labelBackgroundColor=none;fontColor=default;strokeColor=#A8201A;" parent="1" edge="1">
          <mxGeometry width="50" height="50" relative="1" as="geometry">
            <mxPoint x="-830" y="1017" as="sourcePoint" />
            <mxPoint x="-660" y="1017" as="targetPoint" />
          </mxGeometry>
        </mxCell>
        <mxCell id="6Ke4Tf1bYYIwLAMuj2lj-51" value="" style="endArrow=none;html=1;rounded=1;labelBackgroundColor=none;fontColor=default;strokeColor=#A8201A;" parent="1" edge="1">
          <mxGeometry width="50" height="50" relative="1" as="geometry">
            <mxPoint x="-620" y="890" as="sourcePoint" />
            <mxPoint x="-430" y="890" as="targetPoint" />
          </mxGeometry>
        </mxCell>
        <mxCell id="6Ke4Tf1bYYIwLAMuj2lj-55" value="Dashboard User" style="text;html=1;align=center;verticalAlign=middle;resizable=0;points=[];autosize=1;strokeColor=none;fillColor=none;labelBackgroundColor=none;rounded=1;fontColor=#143642;" parent="1" vertex="1">
          <mxGeometry x="-800" y="390" width="110" height="30" as="geometry" />
        </mxCell>
        <mxCell id="6Ke4Tf1bYYIwLAMuj2lj-56" value="Vagas Para você" style="text;html=1;align=center;verticalAlign=middle;resizable=0;points=[];autosize=1;strokeColor=none;fillColor=none;labelBackgroundColor=none;rounded=1;fontColor=#143642;" parent="1" vertex="1">
          <mxGeometry x="-791" y="433" width="110" height="30" as="geometry" />
        </mxCell>
        <mxCell id="6Ke4Tf1bYYIwLAMuj2lj-57" value="" style="endArrow=none;dashed=1;html=1;rounded=1;labelBackgroundColor=none;fontColor=default;strokeColor=#A8201A;" parent="1" edge="1">
          <mxGeometry width="50" height="50" relative="1" as="geometry">
            <mxPoint x="-826" y="460" as="sourcePoint" />
            <mxPoint x="-660" y="460" as="targetPoint" />
          </mxGeometry>
        </mxCell>
        <mxCell id="6Ke4Tf1bYYIwLAMuj2lj-60" value="" style="endArrow=none;html=1;rounded=1;labelBackgroundColor=none;fontColor=default;strokeColor=#A8201A;" parent="1" edge="1">
          <mxGeometry width="50" height="50" relative="1" as="geometry">
            <mxPoint x="-825" y="420" as="sourcePoint" />
            <mxPoint x="-660" y="420" as="targetPoint" />
          </mxGeometry>
        </mxCell>
        <mxCell id="1BL5ixbeq6saKE9p_KcN-3" value="Modal Adicionar Experiência" style="text;html=1;align=center;verticalAlign=middle;resizable=0;points=[];autosize=1;strokeColor=none;fillColor=none;labelBackgroundColor=none;rounded=1;fontColor=#143642;" parent="1" vertex="1">
          <mxGeometry x="-355" y="866" width="170" height="30" as="geometry" />
        </mxCell>
        <mxCell id="1BL5ixbeq6saKE9p_KcN-4" value="Inserir Experiência/Cancelar&amp;nbsp;" style="text;html=1;align=center;verticalAlign=middle;resizable=0;points=[];autosize=1;strokeColor=none;fillColor=none;labelBackgroundColor=none;rounded=1;fontColor=#143642;" parent="1" vertex="1">
          <mxGeometry x="-354" y="890" width="180" height="30" as="geometry" />
        </mxCell>
        <mxCell id="1BL5ixbeq6saKE9p_KcN-5" value="" style="endArrow=none;dashed=1;html=1;rounded=1;labelBackgroundColor=none;fontColor=default;strokeColor=#A8201A;" parent="1" edge="1">
          <mxGeometry width="50" height="50" relative="1" as="geometry">
            <mxPoint x="-344" y="921" as="sourcePoint" />
            <mxPoint x="-170" y="921" as="targetPoint" />
          </mxGeometry>
        </mxCell>
        <mxCell id="1BL5ixbeq6saKE9p_KcN-6" value="" style="endArrow=none;html=1;rounded=1;labelBackgroundColor=none;fontColor=default;strokeColor=#A8201A;" parent="1" edge="1">
          <mxGeometry width="50" height="50" relative="1" as="geometry">
            <mxPoint x="-355" y="889" as="sourcePoint" />
            <mxPoint x="-165" y="889" as="targetPoint" />
          </mxGeometry>
        </mxCell>
        <mxCell id="1BL5ixbeq6saKE9p_KcN-16" value="Listas de vagas" style="text;html=1;align=center;verticalAlign=middle;resizable=0;points=[];autosize=1;strokeColor=none;fillColor=none;labelBackgroundColor=none;rounded=1;fontColor=#143642;" parent="1" vertex="1">
          <mxGeometry x="-585" y="390" width="110" height="30" as="geometry" />
        </mxCell>
        <mxCell id="1BL5ixbeq6saKE9p_KcN-17" value="" style="endArrow=none;html=1;rounded=1;labelBackgroundColor=none;fontColor=default;strokeColor=#A8201A;" parent="1" edge="1">
          <mxGeometry width="50" height="50" relative="1" as="geometry">
            <mxPoint x="-620" y="421" as="sourcePoint" />
            <mxPoint x="-438" y="420" as="targetPoint" />
          </mxGeometry>
        </mxCell>
        <mxCell id="1BL5ixbeq6saKE9p_KcN-18" value="Visualizar Vaga" style="text;html=1;align=center;verticalAlign=middle;resizable=0;points=[];autosize=1;strokeColor=none;fillColor=none;labelBackgroundColor=none;rounded=1;fontColor=#143642;" parent="1" vertex="1">
          <mxGeometry x="-585" y="420" width="110" height="30" as="geometry" />
        </mxCell>
        <mxCell id="1BL5ixbeq6saKE9p_KcN-20" value="" style="endArrow=none;dashed=1;html=1;rounded=1;labelBackgroundColor=none;fontColor=default;strokeColor=#A8201A;" parent="1" edge="1">
          <mxGeometry width="50" height="50" relative="1" as="geometry">
            <mxPoint x="-610" y="460" as="sourcePoint" />
            <mxPoint x="-440" y="460" as="targetPoint" />
          </mxGeometry>
        </mxCell>
        <mxCell id="1BL5ixbeq6saKE9p_KcN-21" value="Modal detalhe vaga" style="text;html=1;align=center;verticalAlign=middle;resizable=0;points=[];autosize=1;strokeColor=none;fillColor=none;labelBackgroundColor=none;rounded=1;fontColor=#143642;" parent="1" vertex="1">
          <mxGeometry x="-385" y="390" width="130" height="30" as="geometry" />
        </mxCell>
        <mxCell id="1BL5ixbeq6saKE9p_KcN-22" value="Candidatar/Cancelar&amp;nbsp;" style="text;html=1;align=center;verticalAlign=middle;resizable=0;points=[];autosize=1;strokeColor=none;fillColor=none;labelBackgroundColor=none;rounded=1;fontColor=#143642;" parent="1" vertex="1">
          <mxGeometry x="-384" y="420" width="140" height="30" as="geometry" />
        </mxCell>
        <mxCell id="1BL5ixbeq6saKE9p_KcN-23" value="" style="endArrow=none;dashed=1;html=1;rounded=1;labelBackgroundColor=none;fontColor=default;strokeColor=#A8201A;" parent="1" edge="1">
          <mxGeometry width="50" height="50" relative="1" as="geometry">
            <mxPoint x="-394" y="461" as="sourcePoint" />
            <mxPoint x="-220" y="461" as="targetPoint" />
          </mxGeometry>
        </mxCell>
        <mxCell id="1BL5ixbeq6saKE9p_KcN-24" value="" style="endArrow=none;html=1;rounded=1;labelBackgroundColor=none;fontColor=default;strokeColor=#A8201A;" parent="1" edge="1">
          <mxGeometry width="50" height="50" relative="1" as="geometry">
            <mxPoint x="-405" y="419" as="sourcePoint" />
            <mxPoint x="-215" y="419" as="targetPoint" />
          </mxGeometry>
        </mxCell>
        <mxCell id="1BL5ixbeq6saKE9p_KcN-26" value="" style="endArrow=classic;html=1;rounded=1;edgeStyle=orthogonalEdgeStyle;labelBackgroundColor=none;fontColor=default;strokeColor=#A8201A;" parent="1" edge="1">
          <mxGeometry width="50" height="50" relative="1" as="geometry">
            <mxPoint x="-444" y="450" as="sourcePoint" />
            <mxPoint x="-399" y="410" as="targetPoint" />
            <Array as="points">
              <mxPoint x="-434" y="450" />
              <mxPoint x="-434" y="410" />
            </Array>
          </mxGeometry>
        </mxCell>
        <mxCell id="1BL5ixbeq6saKE9p_KcN-38" value="Dashboard User" style="text;html=1;align=center;verticalAlign=middle;resizable=0;points=[];autosize=1;strokeColor=none;fillColor=none;labelBackgroundColor=none;rounded=1;fontColor=#143642;" parent="1" vertex="1">
          <mxGeometry x="30" y="390" width="110" height="30" as="geometry" />
        </mxCell>
        <mxCell id="1BL5ixbeq6saKE9p_KcN-39" value="" style="endArrow=none;html=1;rounded=1;labelBackgroundColor=none;fontColor=default;strokeColor=#A8201A;" parent="1" edge="1">
          <mxGeometry width="50" height="50" relative="1" as="geometry">
            <mxPoint x="5" y="420" as="sourcePoint" />
            <mxPoint x="185" y="420" as="targetPoint" />
          </mxGeometry>
        </mxCell>
        <mxCell id="1BL5ixbeq6saKE9p_KcN-40" value="" style="endArrow=classic;html=1;rounded=1;edgeStyle=orthogonalEdgeStyle;labelBackgroundColor=none;fontColor=default;strokeColor=#A8201A;" parent="1" edge="1">
          <mxGeometry width="50" height="50" relative="1" as="geometry">
            <mxPoint x="-204" y="440" as="sourcePoint" />
            <mxPoint x="-4" y="400" as="targetPoint" />
            <Array as="points">
              <mxPoint x="-114" y="440" />
              <mxPoint x="-114" y="400" />
            </Array>
          </mxGeometry>
        </mxCell>
        <mxCell id="1BL5ixbeq6saKE9p_KcN-47" value="" style="endArrow=none;html=1;rounded=1;labelBackgroundColor=none;fontColor=default;strokeColor=#A8201A;" parent="1" edge="1">
          <mxGeometry width="50" height="50" relative="1" as="geometry">
            <mxPoint x="-440" y="833" as="sourcePoint" />
            <mxPoint x="-60" y="560" as="targetPoint" />
            <Array as="points">
              <mxPoint x="-60" y="833" />
            </Array>
          </mxGeometry>
        </mxCell>
        <mxCell id="1BL5ixbeq6saKE9p_KcN-63" value="" style="endArrow=classic;html=1;rounded=1;edgeStyle=orthogonalEdgeStyle;labelBackgroundColor=none;fontColor=default;strokeColor=#A8201A;" parent="1" edge="1">
          <mxGeometry width="50" height="50" relative="1" as="geometry">
            <mxPoint x="-660" y="540" as="sourcePoint" />
            <mxPoint x="-620" y="520" as="targetPoint" />
            <Array as="points">
              <mxPoint x="-640" y="520" />
            </Array>
          </mxGeometry>
        </mxCell>
        <mxCell id="1BL5ixbeq6saKE9p_KcN-65" value="Notícias" style="text;html=1;align=center;verticalAlign=middle;resizable=0;points=[];autosize=1;strokeColor=none;fillColor=none;labelBackgroundColor=none;rounded=1;fontColor=#143642;" parent="1" vertex="1">
          <mxGeometry x="-782" y="534" width="70" height="30" as="geometry" />
        </mxCell>
        <mxCell id="1BL5ixbeq6saKE9p_KcN-66" value="" style="endArrow=none;dashed=1;html=1;rounded=1;labelBackgroundColor=none;fontColor=default;strokeColor=#A8201A;" parent="1" edge="1">
          <mxGeometry width="50" height="50" relative="1" as="geometry">
            <mxPoint x="-832" y="560" as="sourcePoint" />
            <mxPoint x="-660" y="560" as="targetPoint" />
          </mxGeometry>
        </mxCell>
        <mxCell id="1BL5ixbeq6saKE9p_KcN-68" value="Listas de Notícias" style="text;html=1;align=center;verticalAlign=middle;resizable=0;points=[];autosize=1;strokeColor=none;fillColor=none;labelBackgroundColor=none;rounded=1;fontColor=#143642;" parent="1" vertex="1">
          <mxGeometry x="-590" y="510" width="120" height="30" as="geometry" />
        </mxCell>
        <mxCell id="1BL5ixbeq6saKE9p_KcN-69" value="" style="endArrow=none;html=1;rounded=1;labelBackgroundColor=none;fontColor=default;strokeColor=#A8201A;" parent="1" edge="1">
          <mxGeometry width="50" height="50" relative="1" as="geometry">
            <mxPoint x="-620" y="541" as="sourcePoint" />
            <mxPoint x="-440" y="540" as="targetPoint" />
          </mxGeometry>
        </mxCell>
        <mxCell id="1BL5ixbeq6saKE9p_KcN-70" value="Visualizar Notícia" style="text;html=1;align=center;verticalAlign=middle;resizable=0;points=[];autosize=1;strokeColor=none;fillColor=none;labelBackgroundColor=none;rounded=1;fontColor=#143642;" parent="1" vertex="1">
          <mxGeometry x="-590" y="545" width="120" height="30" as="geometry" />
        </mxCell>
        <mxCell id="1BL5ixbeq6saKE9p_KcN-71" value="" style="endArrow=none;dashed=1;html=1;rounded=1;labelBackgroundColor=none;fontColor=default;strokeColor=#A8201A;" parent="1" edge="1">
          <mxGeometry width="50" height="50" relative="1" as="geometry">
            <mxPoint x="-610" y="580" as="sourcePoint" />
            <mxPoint x="-440" y="580" as="targetPoint" />
          </mxGeometry>
        </mxCell>
        <mxCell id="1BL5ixbeq6saKE9p_KcN-72" value="Modal detalhe Notícia" style="text;html=1;align=center;verticalAlign=middle;resizable=0;points=[];autosize=1;strokeColor=none;fillColor=none;labelBackgroundColor=none;rounded=1;fontColor=#143642;" parent="1" vertex="1">
          <mxGeometry x="-380" y="510" width="140" height="30" as="geometry" />
        </mxCell>
        <mxCell id="1BL5ixbeq6saKE9p_KcN-75" value="" style="endArrow=classic;html=1;rounded=1;edgeStyle=orthogonalEdgeStyle;labelBackgroundColor=none;fontColor=default;strokeColor=#A8201A;" parent="1" edge="1">
          <mxGeometry width="50" height="50" relative="1" as="geometry">
            <mxPoint x="-440" y="561" as="sourcePoint" />
            <mxPoint x="-395" y="521" as="targetPoint" />
            <Array as="points">
              <mxPoint x="-430" y="561" />
              <mxPoint x="-430" y="521" />
            </Array>
          </mxGeometry>
        </mxCell>
        <mxCell id="1BL5ixbeq6saKE9p_KcN-76" value="Fechar" style="text;html=1;align=center;verticalAlign=middle;resizable=0;points=[];autosize=1;strokeColor=none;fillColor=none;labelBackgroundColor=none;rounded=1;fontColor=#143642;" parent="1" vertex="1">
          <mxGeometry x="-340.5" y="547" width="60" height="30" as="geometry" />
        </mxCell>
        <mxCell id="1BL5ixbeq6saKE9p_KcN-77" value="" style="endArrow=none;html=1;rounded=1;labelBackgroundColor=none;fontColor=default;strokeColor=#A8201A;" parent="1" edge="1">
          <mxGeometry width="50" height="50" relative="1" as="geometry">
            <mxPoint x="-400" y="541" as="sourcePoint" />
            <mxPoint x="-220" y="540" as="targetPoint" />
          </mxGeometry>
        </mxCell>
        <mxCell id="1BL5ixbeq6saKE9p_KcN-82" value="" style="endArrow=none;html=1;rounded=1;labelBackgroundColor=none;fontColor=default;strokeColor=#A8201A;" parent="1" edge="1">
          <mxGeometry width="50" height="50" relative="1" as="geometry">
            <mxPoint x="-220" y="562" as="sourcePoint" />
            <mxPoint x="-60" y="400" as="targetPoint" />
            <Array as="points">
              <mxPoint x="-60" y="562" />
            </Array>
          </mxGeometry>
        </mxCell>
        <mxCell id="1BL5ixbeq6saKE9p_KcN-83" value="" style="endArrow=classic;html=1;rounded=1;edgeStyle=orthogonalEdgeStyle;labelBackgroundColor=none;fontColor=default;strokeColor=#A8201A;" parent="1" edge="1">
          <mxGeometry width="50" height="50" relative="1" as="geometry">
            <mxPoint x="-661" y="634" as="sourcePoint" />
            <mxPoint x="-621" y="614" as="targetPoint" />
            <Array as="points">
              <mxPoint x="-641" y="614" />
            </Array>
          </mxGeometry>
        </mxCell>
        <mxCell id="1BL5ixbeq6saKE9p_KcN-84" value="" style="endArrow=classic;html=1;rounded=1;edgeStyle=orthogonalEdgeStyle;labelBackgroundColor=none;fontColor=default;strokeColor=#A8201A;" parent="1" edge="1">
          <mxGeometry width="50" height="50" relative="1" as="geometry">
            <mxPoint x="-661" y="894" as="sourcePoint" />
            <mxPoint x="-621" y="874" as="targetPoint" />
            <Array as="points">
              <mxPoint x="-641" y="874" />
            </Array>
          </mxGeometry>
        </mxCell>
        <mxCell id="1BL5ixbeq6saKE9p_KcN-85" value="" style="endArrow=classic;html=1;rounded=1;edgeStyle=orthogonalEdgeStyle;labelBackgroundColor=none;fontColor=default;strokeColor=#A8201A;" parent="1" edge="1">
          <mxGeometry width="50" height="50" relative="1" as="geometry">
            <mxPoint x="-420" y="910" as="sourcePoint" />
            <mxPoint x="-365" y="880" as="targetPoint" />
            <Array as="points">
              <mxPoint x="-410" y="910" />
              <mxPoint x="-400" y="910" />
              <mxPoint x="-400" y="880" />
            </Array>
          </mxGeometry>
        </mxCell>
        <mxCell id="1BL5ixbeq6saKE9p_KcN-88" value="" style="edgeStyle=orthogonalEdgeStyle;orthogonalLoop=1;jettySize=auto;html=1;entryX=0.777;entryY=0.02;entryDx=0;entryDy=0;entryPerimeter=0;rounded=1;labelBackgroundColor=none;fontColor=default;strokeColor=#A8201A;" parent="1" target="6Ke4Tf1bYYIwLAMuj2lj-30" edge="1">
          <mxGeometry relative="1" as="geometry">
            <mxPoint x="-160" y="900" as="sourcePoint" />
            <mxPoint x="-100" y="860" as="targetPoint" />
            <Array as="points">
              <mxPoint x="-100" y="900" />
              <mxPoint x="-100" y="860" />
              <mxPoint x="-494" y="860" />
            </Array>
          </mxGeometry>
        </mxCell>
        <mxCell id="1BL5ixbeq6saKE9p_KcN-91" value="Busca de Vaga" style="text;html=1;align=center;verticalAlign=middle;resizable=0;points=[];autosize=1;strokeColor=none;fillColor=none;labelBackgroundColor=none;rounded=1;fontColor=#143642;" parent="1" vertex="1">
          <mxGeometry x="-801" y="1108" width="100" height="30" as="geometry" />
        </mxCell>
        <mxCell id="1BL5ixbeq6saKE9p_KcN-92" value="" style="endArrow=none;dashed=1;html=1;rounded=1;labelBackgroundColor=none;fontColor=default;strokeColor=#A8201A;" parent="1" edge="1">
          <mxGeometry width="50" height="50" relative="1" as="geometry">
            <mxPoint x="-830" y="1133" as="sourcePoint" />
            <mxPoint x="-660" y="1133" as="targetPoint" />
          </mxGeometry>
        </mxCell>
        <mxCell id="1BL5ixbeq6saKE9p_KcN-93" value="" style="endArrow=classic;html=1;rounded=1;edgeStyle=orthogonalEdgeStyle;labelBackgroundColor=none;fontColor=default;strokeColor=#A8201A;" parent="1" edge="1">
          <mxGeometry width="50" height="50" relative="1" as="geometry">
            <mxPoint x="-671" y="1125" as="sourcePoint" />
            <mxPoint x="-631" y="1105" as="targetPoint" />
            <Array as="points">
              <mxPoint x="-651" y="1105" />
            </Array>
          </mxGeometry>
        </mxCell>
        <mxCell id="1BL5ixbeq6saKE9p_KcN-99" value="Formulário de Busca/Lista Vagas" style="text;html=1;align=center;verticalAlign=middle;resizable=0;points=[];autosize=1;strokeColor=none;fillColor=none;labelBackgroundColor=none;rounded=1;fontColor=#143642;" parent="1" vertex="1">
          <mxGeometry x="-630" y="1085" width="200" height="30" as="geometry" />
        </mxCell>
        <mxCell id="1BL5ixbeq6saKE9p_KcN-100" value="" style="endArrow=none;html=1;rounded=1;labelBackgroundColor=none;fontColor=default;strokeColor=#A8201A;" parent="1" edge="1">
          <mxGeometry width="50" height="50" relative="1" as="geometry">
            <mxPoint x="-620" y="1111" as="sourcePoint" />
            <mxPoint x="-438" y="1110" as="targetPoint" />
          </mxGeometry>
        </mxCell>
        <mxCell id="1BL5ixbeq6saKE9p_KcN-101" value="Visualizar Vaga" style="text;html=1;align=center;verticalAlign=middle;resizable=0;points=[];autosize=1;strokeColor=none;fillColor=none;labelBackgroundColor=none;rounded=1;fontColor=#143642;" parent="1" vertex="1">
          <mxGeometry x="-585" y="1110" width="110" height="30" as="geometry" />
        </mxCell>
        <mxCell id="1BL5ixbeq6saKE9p_KcN-102" value="" style="endArrow=none;dashed=1;html=1;rounded=1;labelBackgroundColor=none;fontColor=default;strokeColor=#A8201A;" parent="1" edge="1">
          <mxGeometry width="50" height="50" relative="1" as="geometry">
            <mxPoint x="-620" y="1150" as="sourcePoint" />
            <mxPoint x="-440" y="1150" as="targetPoint" />
          </mxGeometry>
        </mxCell>
        <mxCell id="1BL5ixbeq6saKE9p_KcN-104" value="" style="endArrow=none;html=1;rounded=1;labelBackgroundColor=none;fontColor=default;strokeColor=#A8201A;" parent="1" edge="1">
          <mxGeometry width="50" height="50" relative="1" as="geometry">
            <mxPoint x="-430" y="940" as="sourcePoint" />
            <mxPoint x="-60" y="830" as="targetPoint" />
            <Array as="points">
              <mxPoint x="-400" y="956" />
              <mxPoint x="-60" y="956" />
            </Array>
          </mxGeometry>
        </mxCell>
        <mxCell id="1BL5ixbeq6saKE9p_KcN-105" value="&amp;nbsp; &amp;nbsp; &amp;nbsp;Cancelar&amp;nbsp;" style="text;html=1;align=center;verticalAlign=middle;resizable=0;points=[];autosize=1;strokeColor=none;fillColor=none;labelBackgroundColor=none;rounded=1;fontColor=#143642;" parent="1" vertex="1">
          <mxGeometry x="-584.5" y="1156" width="90" height="30" as="geometry" />
        </mxCell>
        <mxCell id="1BL5ixbeq6saKE9p_KcN-106" value="" style="endArrow=classic;html=1;rounded=1;edgeStyle=orthogonalEdgeStyle;labelBackgroundColor=none;fontColor=default;strokeColor=#A8201A;" parent="1" edge="1">
          <mxGeometry width="50" height="50" relative="1" as="geometry">
            <mxPoint x="-436" y="1116" as="sourcePoint" />
            <mxPoint x="-396" y="1096" as="targetPoint" />
            <Array as="points">
              <mxPoint x="-416" y="1096" />
            </Array>
          </mxGeometry>
        </mxCell>
        <mxCell id="1BL5ixbeq6saKE9p_KcN-107" value="Modal detalhe vaga" style="text;html=1;align=center;verticalAlign=middle;resizable=0;points=[];autosize=1;strokeColor=none;fillColor=none;labelBackgroundColor=none;rounded=1;fontColor=#143642;" parent="1" vertex="1">
          <mxGeometry x="-365" y="1084" width="130" height="30" as="geometry" />
        </mxCell>
        <mxCell id="1BL5ixbeq6saKE9p_KcN-108" value="Candidatar/Cancelar&amp;nbsp;" style="text;html=1;align=center;verticalAlign=middle;resizable=0;points=[];autosize=1;strokeColor=none;fillColor=none;labelBackgroundColor=none;rounded=1;fontColor=#143642;" parent="1" vertex="1">
          <mxGeometry x="-364" y="1110" width="140" height="30" as="geometry" />
        </mxCell>
        <mxCell id="1BL5ixbeq6saKE9p_KcN-109" value="" style="endArrow=none;html=1;rounded=1;labelBackgroundColor=none;fontColor=default;strokeColor=#A8201A;" parent="1" edge="1">
          <mxGeometry width="50" height="50" relative="1" as="geometry">
            <mxPoint x="-385" y="1109" as="sourcePoint" />
            <mxPoint x="-195" y="1109" as="targetPoint" />
          </mxGeometry>
        </mxCell>
        <mxCell id="1BL5ixbeq6saKE9p_KcN-110" value="" style="endArrow=none;dashed=1;html=1;rounded=1;labelBackgroundColor=none;fontColor=default;strokeColor=#A8201A;" parent="1" edge="1">
          <mxGeometry width="50" height="50" relative="1" as="geometry">
            <mxPoint x="-374" y="1151" as="sourcePoint" />
            <mxPoint x="-200" y="1151" as="targetPoint" />
          </mxGeometry>
        </mxCell>
        <mxCell id="1BL5ixbeq6saKE9p_KcN-112" value="" style="endArrow=none;html=1;rounded=1;labelBackgroundColor=none;fontColor=default;strokeColor=#A8201A;" parent="1" edge="1">
          <mxGeometry width="50" height="50" relative="1" as="geometry">
            <mxPoint x="-180" y="1130" as="sourcePoint" />
            <mxPoint x="-60" y="1020" as="targetPoint" />
            <Array as="points">
              <mxPoint x="-60" y="1130" />
            </Array>
          </mxGeometry>
        </mxCell>
        <mxCell id="1BL5ixbeq6saKE9p_KcN-114" value="Busca de Curso" style="text;html=1;align=center;verticalAlign=middle;resizable=0;points=[];autosize=1;strokeColor=none;fillColor=none;labelBackgroundColor=none;rounded=1;fontColor=#143642;" parent="1" vertex="1">
          <mxGeometry x="-806" y="1228" width="110" height="30" as="geometry" />
        </mxCell>
        <mxCell id="1BL5ixbeq6saKE9p_KcN-115" value="" style="endArrow=none;dashed=1;html=1;rounded=1;labelBackgroundColor=none;fontColor=default;strokeColor=#A8201A;" parent="1" edge="1">
          <mxGeometry width="50" height="50" relative="1" as="geometry">
            <mxPoint x="-830" y="1253" as="sourcePoint" />
            <mxPoint x="-660" y="1253" as="targetPoint" />
          </mxGeometry>
        </mxCell>
        <mxCell id="1BL5ixbeq6saKE9p_KcN-116" value="" style="endArrow=classic;html=1;rounded=1;edgeStyle=orthogonalEdgeStyle;labelBackgroundColor=none;fontColor=default;strokeColor=#A8201A;" parent="1" edge="1">
          <mxGeometry width="50" height="50" relative="1" as="geometry">
            <mxPoint x="-661" y="1245" as="sourcePoint" />
            <mxPoint x="-621" y="1225" as="targetPoint" />
            <Array as="points">
              <mxPoint x="-641" y="1225" />
            </Array>
          </mxGeometry>
        </mxCell>
        <mxCell id="1BL5ixbeq6saKE9p_KcN-117" value="Formulário de Busca/Lista curso" style="text;html=1;align=center;verticalAlign=middle;resizable=0;points=[];autosize=1;strokeColor=none;fillColor=none;labelBackgroundColor=none;rounded=1;fontColor=#143642;" parent="1" vertex="1">
          <mxGeometry x="-630" y="1200" width="200" height="30" as="geometry" />
        </mxCell>
        <mxCell id="1BL5ixbeq6saKE9p_KcN-118" value="" style="endArrow=none;html=1;rounded=1;labelBackgroundColor=none;fontColor=default;strokeColor=#A8201A;" parent="1" edge="1">
          <mxGeometry width="50" height="50" relative="1" as="geometry">
            <mxPoint x="-620" y="1231" as="sourcePoint" />
            <mxPoint x="-438" y="1230" as="targetPoint" />
          </mxGeometry>
        </mxCell>
        <mxCell id="1BL5ixbeq6saKE9p_KcN-120" value="" style="endArrow=none;dashed=1;html=1;rounded=1;labelBackgroundColor=none;fontColor=default;strokeColor=#A8201A;" parent="1" edge="1">
          <mxGeometry width="50" height="50" relative="1" as="geometry">
            <mxPoint x="-620" y="1270" as="sourcePoint" />
            <mxPoint x="-440" y="1270" as="targetPoint" />
          </mxGeometry>
        </mxCell>
        <mxCell id="1BL5ixbeq6saKE9p_KcN-121" value="&amp;nbsp; &amp;nbsp; &amp;nbsp;Cancelar&amp;nbsp;" style="text;html=1;align=center;verticalAlign=middle;resizable=0;points=[];autosize=1;strokeColor=none;fillColor=none;labelBackgroundColor=none;rounded=1;fontColor=#143642;" parent="1" vertex="1">
          <mxGeometry x="-584.5" y="1276" width="90" height="30" as="geometry" />
        </mxCell>
        <mxCell id="1BL5ixbeq6saKE9p_KcN-122" value="" style="endArrow=classic;html=1;rounded=1;edgeStyle=orthogonalEdgeStyle;labelBackgroundColor=none;fontColor=default;strokeColor=#A8201A;" parent="1" edge="1">
          <mxGeometry width="50" height="50" relative="1" as="geometry">
            <mxPoint x="-436" y="1250" as="sourcePoint" />
            <mxPoint x="-396" y="1216" as="targetPoint" />
            <Array as="points">
              <mxPoint x="-416" y="1216" />
            </Array>
          </mxGeometry>
        </mxCell>
        <mxCell id="1BL5ixbeq6saKE9p_KcN-123" value="Modal detalhe Curso" style="text;html=1;align=center;verticalAlign=middle;resizable=0;points=[];autosize=1;strokeColor=none;fillColor=none;labelBackgroundColor=none;rounded=1;fontColor=#143642;" parent="1" vertex="1">
          <mxGeometry x="-365" y="1200" width="130" height="30" as="geometry" />
        </mxCell>
        <mxCell id="1BL5ixbeq6saKE9p_KcN-124" value="Candidatar/Cancelar&amp;nbsp;" style="text;html=1;align=center;verticalAlign=middle;resizable=0;points=[];autosize=1;strokeColor=none;fillColor=none;labelBackgroundColor=none;rounded=1;fontColor=#143642;" parent="1" vertex="1">
          <mxGeometry x="-364" y="1230" width="140" height="30" as="geometry" />
        </mxCell>
        <mxCell id="1BL5ixbeq6saKE9p_KcN-125" value="" style="endArrow=none;html=1;rounded=1;labelBackgroundColor=none;fontColor=default;strokeColor=#A8201A;" parent="1" edge="1">
          <mxGeometry width="50" height="50" relative="1" as="geometry">
            <mxPoint x="-385" y="1229" as="sourcePoint" />
            <mxPoint x="-195" y="1229" as="targetPoint" />
          </mxGeometry>
        </mxCell>
        <mxCell id="1BL5ixbeq6saKE9p_KcN-126" value="" style="endArrow=none;dashed=1;html=1;rounded=1;labelBackgroundColor=none;fontColor=default;strokeColor=#A8201A;" parent="1" edge="1">
          <mxGeometry width="50" height="50" relative="1" as="geometry">
            <mxPoint x="-374" y="1271" as="sourcePoint" />
            <mxPoint x="-200" y="1271" as="targetPoint" />
          </mxGeometry>
        </mxCell>
        <mxCell id="1BL5ixbeq6saKE9p_KcN-128" value="" style="endArrow=none;html=1;rounded=1;labelBackgroundColor=none;fontColor=default;strokeColor=#A8201A;" parent="1" edge="1">
          <mxGeometry width="50" height="50" relative="1" as="geometry">
            <mxPoint x="-180" y="1255" as="sourcePoint" />
            <mxPoint x="-60" y="1160" as="targetPoint" />
            <Array as="points">
              <mxPoint x="-60" y="1255" />
            </Array>
          </mxGeometry>
        </mxCell>
        <mxCell id="EjViC9yRmzUdTBrnQLS--2" value="Form. Busca/Lista Interesses" style="text;html=1;align=center;verticalAlign=middle;resizable=0;points=[];autosize=1;strokeColor=none;fillColor=none;labelBackgroundColor=none;rounded=1;fontColor=#143642;" parent="1" vertex="1">
          <mxGeometry x="-620" y="970" width="180" height="30" as="geometry" />
        </mxCell>
        <mxCell id="EjViC9yRmzUdTBrnQLS--3" value="" style="endArrow=none;html=1;rounded=1;labelBackgroundColor=none;fontColor=default;strokeColor=#A8201A;" parent="1" edge="1">
          <mxGeometry width="50" height="50" relative="1" as="geometry">
            <mxPoint x="-620" y="1001" as="sourcePoint" />
            <mxPoint x="-438" y="1000" as="targetPoint" />
          </mxGeometry>
        </mxCell>
        <mxCell id="EjViC9yRmzUdTBrnQLS--4" value="Visualizar Vaga" style="text;html=1;align=center;verticalAlign=middle;resizable=0;points=[];autosize=1;strokeColor=none;fillColor=none;labelBackgroundColor=none;rounded=1;fontColor=#143642;" parent="1" vertex="1">
          <mxGeometry x="-585" y="1000" width="110" height="30" as="geometry" />
        </mxCell>
        <mxCell id="EjViC9yRmzUdTBrnQLS--5" value="" style="endArrow=none;dashed=1;html=1;rounded=1;labelBackgroundColor=none;fontColor=default;strokeColor=#A8201A;" parent="1" edge="1">
          <mxGeometry width="50" height="50" relative="1" as="geometry">
            <mxPoint x="-610" y="1040" as="sourcePoint" />
            <mxPoint x="-440" y="1040" as="targetPoint" />
          </mxGeometry>
        </mxCell>
        <mxCell id="EjViC9yRmzUdTBrnQLS--6" value="Modal detalhe vaga" style="text;html=1;align=center;verticalAlign=middle;resizable=0;points=[];autosize=1;strokeColor=none;fillColor=none;labelBackgroundColor=none;rounded=1;fontColor=#143642;" parent="1" vertex="1">
          <mxGeometry x="-385" y="970" width="130" height="30" as="geometry" />
        </mxCell>
        <mxCell id="EjViC9yRmzUdTBrnQLS--7" value="Candidatar/Cancelar" style="text;html=1;align=center;verticalAlign=middle;resizable=0;points=[];autosize=1;strokeColor=none;fillColor=none;labelBackgroundColor=none;rounded=1;fontColor=#143642;" parent="1" vertex="1">
          <mxGeometry x="-379" y="1000" width="130" height="30" as="geometry" />
        </mxCell>
        <mxCell id="EjViC9yRmzUdTBrnQLS--9" value="" style="endArrow=none;html=1;rounded=1;labelBackgroundColor=none;fontColor=default;strokeColor=#A8201A;" parent="1" edge="1">
          <mxGeometry width="50" height="50" relative="1" as="geometry">
            <mxPoint x="-405" y="999" as="sourcePoint" />
            <mxPoint x="-215" y="999" as="targetPoint" />
          </mxGeometry>
        </mxCell>
        <mxCell id="EjViC9yRmzUdTBrnQLS--10" value="" style="endArrow=classic;html=1;rounded=1;edgeStyle=orthogonalEdgeStyle;labelBackgroundColor=none;fontColor=default;strokeColor=#A8201A;" parent="1" edge="1">
          <mxGeometry width="50" height="50" relative="1" as="geometry">
            <mxPoint x="-444" y="1020" as="sourcePoint" />
            <mxPoint x="-399" y="990" as="targetPoint" />
            <Array as="points">
              <mxPoint x="-420" y="1020" />
              <mxPoint x="-420" y="990" />
            </Array>
          </mxGeometry>
        </mxCell>
        <mxCell id="EjViC9yRmzUdTBrnQLS--12" value="" style="endArrow=classic;html=1;rounded=1;edgeStyle=orthogonalEdgeStyle;labelBackgroundColor=none;fontColor=default;strokeColor=#A8201A;" parent="1" edge="1">
          <mxGeometry width="50" height="50" relative="1" as="geometry">
            <mxPoint x="-671" y="1004" as="sourcePoint" />
            <mxPoint x="-631" y="984" as="targetPoint" />
            <Array as="points">
              <mxPoint x="-651" y="984" />
            </Array>
          </mxGeometry>
        </mxCell>
        <mxCell id="EjViC9yRmzUdTBrnQLS--14" value="" style="endArrow=none;html=1;rounded=1;labelBackgroundColor=none;fontColor=default;strokeColor=#A8201A;" parent="1" edge="1">
          <mxGeometry width="50" height="50" relative="1" as="geometry">
            <mxPoint x="-180" y="1020" as="sourcePoint" />
            <mxPoint x="-60" y="950" as="targetPoint" />
            <Array as="points">
              <mxPoint x="-60" y="1020" />
            </Array>
          </mxGeometry>
        </mxCell>
        <mxCell id="EjViC9yRmzUdTBrnQLS--15" value="Site" style="text;html=1;align=center;verticalAlign=middle;resizable=0;points=[];autosize=1;strokeColor=none;fillColor=none;labelBackgroundColor=none;rounded=1;fontColor=#143642;" parent="1" vertex="1">
          <mxGeometry x="-1535" y="360" width="40" height="30" as="geometry" />
        </mxCell>
        <mxCell id="EjViC9yRmzUdTBrnQLS--16" value="" style="endArrow=none;html=1;rounded=1;labelBackgroundColor=none;fontColor=default;strokeColor=#A8201A;" parent="1" edge="1">
          <mxGeometry width="50" height="50" relative="1" as="geometry">
            <mxPoint x="-1595" y="390" as="sourcePoint" />
            <mxPoint x="-1430" y="390" as="targetPoint" />
          </mxGeometry>
        </mxCell>
        <mxCell id="EjViC9yRmzUdTBrnQLS--17" value="" style="outlineConnect=0;strokeColor=none;dashed=0;verticalLabelPosition=bottom;verticalAlign=top;align=center;html=1;fontSize=12;fontStyle=0;aspect=fixed;pointerEvents=1;shape=mxgraph.aws4.user;labelBackgroundColor=none;rounded=1;fillColor=#FAE5C7;fontColor=#143642;" parent="1" vertex="1">
          <mxGeometry x="-1690" y="340" width="56" height="56" as="geometry" />
        </mxCell>
        <mxCell id="EjViC9yRmzUdTBrnQLS--18" value="" style="endArrow=classic;html=1;curved=1;labelBackgroundColor=none;fontColor=default;rounded=1;strokeColor=#A8201A;" parent="1" edge="1">
          <mxGeometry width="50" height="50" relative="1" as="geometry">
            <mxPoint x="-1610" y="370" as="sourcePoint" />
            <mxPoint x="-1560" y="370" as="targetPoint" />
          </mxGeometry>
        </mxCell>
        <mxCell id="EjViC9yRmzUdTBrnQLS--19" value="Login" style="text;html=1;align=center;verticalAlign=middle;resizable=0;points=[];autosize=1;strokeColor=none;fillColor=none;labelBackgroundColor=none;rounded=1;fontColor=#143642;" parent="1" vertex="1">
          <mxGeometry x="-1541" y="393" width="50" height="30" as="geometry" />
        </mxCell>
        <mxCell id="EjViC9yRmzUdTBrnQLS--20" value="" style="endArrow=none;dashed=1;html=1;rounded=1;labelBackgroundColor=none;fontColor=default;strokeColor=#A8201A;" parent="1" edge="1">
          <mxGeometry width="50" height="50" relative="1" as="geometry">
            <mxPoint x="-1596" y="420" as="sourcePoint" />
            <mxPoint x="-1430" y="420" as="targetPoint" />
          </mxGeometry>
        </mxCell>
        <mxCell id="EjViC9yRmzUdTBrnQLS--21" value="Cadastro" style="text;html=1;align=center;verticalAlign=middle;resizable=0;points=[];autosize=1;strokeColor=none;fillColor=none;labelBackgroundColor=none;rounded=1;fontColor=#143642;" parent="1" vertex="1">
          <mxGeometry x="-1551" y="423" width="70" height="30" as="geometry" />
        </mxCell>
        <mxCell id="EjViC9yRmzUdTBrnQLS--22" value="" style="endArrow=none;dashed=1;html=1;rounded=1;labelBackgroundColor=none;fontColor=default;strokeColor=#A8201A;" parent="1" edge="1">
          <mxGeometry width="50" height="50" relative="1" as="geometry">
            <mxPoint x="-1597" y="450" as="sourcePoint" />
            <mxPoint x="-1431" y="450" as="targetPoint" />
          </mxGeometry>
        </mxCell>
        <mxCell id="EjViC9yRmzUdTBrnQLS--23" value="" style="endArrow=classic;html=1;rounded=1;edgeStyle=orthogonalEdgeStyle;labelBackgroundColor=none;fontColor=default;strokeColor=#A8201A;" parent="1" edge="1">
          <mxGeometry width="50" height="50" relative="1" as="geometry">
            <mxPoint x="-1440" y="410" as="sourcePoint" />
            <mxPoint x="-1360" y="170" as="targetPoint" />
            <Array as="points">
              <mxPoint x="-1420" y="410" />
              <mxPoint x="-1420" y="170" />
            </Array>
          </mxGeometry>
        </mxCell>
        <mxCell id="EjViC9yRmzUdTBrnQLS--24" value="Formulário Login" style="text;html=1;align=center;verticalAlign=middle;resizable=0;points=[];autosize=1;strokeColor=none;fillColor=none;labelBackgroundColor=none;rounded=1;fontColor=#143642;" parent="1" vertex="1">
          <mxGeometry x="-1325" y="156" width="110" height="30" as="geometry" />
        </mxCell>
        <mxCell id="EjViC9yRmzUdTBrnQLS--25" value="Fazer Login" style="text;html=1;align=center;verticalAlign=middle;resizable=0;points=[];autosize=1;strokeColor=none;fillColor=none;labelBackgroundColor=none;rounded=1;fontColor=#143642;" parent="1" vertex="1">
          <mxGeometry x="-1319" y="185" width="90" height="30" as="geometry" />
        </mxCell>
        <mxCell id="EjViC9yRmzUdTBrnQLS--26" value="" style="endArrow=none;dashed=1;html=1;rounded=1;labelBackgroundColor=none;fontColor=default;strokeColor=#A8201A;" parent="1" edge="1">
          <mxGeometry width="50" height="50" relative="1" as="geometry">
            <mxPoint x="-1370" y="279" as="sourcePoint" />
            <mxPoint x="-1180" y="279" as="targetPoint" />
          </mxGeometry>
        </mxCell>
        <mxCell id="EjViC9yRmzUdTBrnQLS--27" value="Esqueceu a Senha" style="text;html=1;align=center;verticalAlign=middle;resizable=0;points=[];autosize=1;strokeColor=none;fillColor=none;labelBackgroundColor=none;rounded=1;fontColor=#143642;" parent="1" vertex="1">
          <mxGeometry x="-1341.5" y="279" width="120" height="30" as="geometry" />
        </mxCell>
        <mxCell id="EjViC9yRmzUdTBrnQLS--28" value="" style="endArrow=none;html=1;rounded=1;labelBackgroundColor=none;fontColor=default;strokeColor=#A8201A;" parent="1" edge="1">
          <mxGeometry width="50" height="50" relative="1" as="geometry">
            <mxPoint x="-1360" y="180" as="sourcePoint" />
            <mxPoint x="-1170" y="180" as="targetPoint" />
          </mxGeometry>
        </mxCell>
        <mxCell id="EjViC9yRmzUdTBrnQLS--30" value="" style="endArrow=classic;html=1;rounded=1;edgeStyle=orthogonalEdgeStyle;labelBackgroundColor=none;fontColor=default;strokeColor=#A8201A;" parent="1" edge="1">
          <mxGeometry width="50" height="50" relative="1" as="geometry">
            <mxPoint x="-1181" y="299" as="sourcePoint" />
            <mxPoint x="-1141" y="279" as="targetPoint" />
            <Array as="points">
              <mxPoint x="-1161" y="279" />
            </Array>
          </mxGeometry>
        </mxCell>
        <mxCell id="EjViC9yRmzUdTBrnQLS--31" value="Formulário Esqueceu a senha" style="text;html=1;align=center;verticalAlign=middle;resizable=0;points=[];autosize=1;strokeColor=none;fillColor=none;labelBackgroundColor=none;rounded=1;fontColor=#143642;" parent="1" vertex="1">
          <mxGeometry x="-1149" y="261" width="180" height="30" as="geometry" />
        </mxCell>
        <mxCell id="EjViC9yRmzUdTBrnQLS--32" value="Solicitar nova senha" style="text;html=1;align=center;verticalAlign=middle;resizable=0;points=[];autosize=1;strokeColor=none;fillColor=none;labelBackgroundColor=none;rounded=1;fontColor=#143642;" parent="1" vertex="1">
          <mxGeometry x="-1128" y="285" width="130" height="30" as="geometry" />
        </mxCell>
        <mxCell id="EjViC9yRmzUdTBrnQLS--35" value="" style="endArrow=none;html=1;rounded=1;labelBackgroundColor=none;fontColor=default;strokeColor=#A8201A;" parent="1" edge="1">
          <mxGeometry width="50" height="50" relative="1" as="geometry">
            <mxPoint x="-1149" y="285" as="sourcePoint" />
            <mxPoint x="-959" y="285" as="targetPoint" />
          </mxGeometry>
        </mxCell>
        <mxCell id="EjViC9yRmzUdTBrnQLS--38" value="" style="endArrow=none;html=1;rounded=1;labelBackgroundColor=none;fontColor=default;strokeColor=#A8201A;" parent="1" edge="1">
          <mxGeometry width="50" height="50" relative="1" as="geometry">
            <mxPoint x="-1420" y="320" as="sourcePoint" />
            <mxPoint x="-960" y="296" as="targetPoint" />
            <Array as="points">
              <mxPoint x="-920" y="320" />
              <mxPoint x="-920" y="296" />
              <mxPoint x="-930" y="296" />
            </Array>
          </mxGeometry>
        </mxCell>
        <mxCell id="EjViC9yRmzUdTBrnQLS--39" value="Formulário Cadastro" style="text;html=1;align=center;verticalAlign=middle;resizable=0;points=[];autosize=1;strokeColor=none;fillColor=none;labelBackgroundColor=none;rounded=1;fontColor=#143642;" parent="1" vertex="1">
          <mxGeometry x="-1355" y="396" width="130" height="30" as="geometry" />
        </mxCell>
        <mxCell id="EjViC9yRmzUdTBrnQLS--40" value="Fazer cadastro" style="text;html=1;align=center;verticalAlign=middle;resizable=0;points=[];autosize=1;strokeColor=none;fillColor=none;labelBackgroundColor=none;rounded=1;fontColor=#143642;" parent="1" vertex="1">
          <mxGeometry x="-1338" y="425" width="100" height="30" as="geometry" />
        </mxCell>
        <mxCell id="EjViC9yRmzUdTBrnQLS--43" value="" style="endArrow=none;html=1;rounded=1;labelBackgroundColor=none;fontColor=default;strokeColor=#A8201A;" parent="1" edge="1">
          <mxGeometry width="50" height="50" relative="1" as="geometry">
            <mxPoint x="-1380" y="420" as="sourcePoint" />
            <mxPoint x="-1190" y="420" as="targetPoint" />
          </mxGeometry>
        </mxCell>
        <mxCell id="EjViC9yRmzUdTBrnQLS--44" value="" style="endArrow=none;dashed=1;html=1;rounded=1;labelBackgroundColor=none;fontColor=default;strokeColor=#A8201A;" parent="1" edge="1">
          <mxGeometry width="50" height="50" relative="1" as="geometry">
            <mxPoint x="-1367" y="460" as="sourcePoint" />
            <mxPoint x="-1201" y="460" as="targetPoint" />
          </mxGeometry>
        </mxCell>
        <mxCell id="EjViC9yRmzUdTBrnQLS--45" value="" style="endArrow=classic;html=1;rounded=1;edgeStyle=orthogonalEdgeStyle;labelBackgroundColor=none;fontColor=default;strokeColor=#A8201A;" parent="1" edge="1">
          <mxGeometry width="50" height="50" relative="1" as="geometry">
            <mxPoint x="-1431" y="434" as="sourcePoint" />
            <mxPoint x="-1391" y="414" as="targetPoint" />
            <Array as="points">
              <mxPoint x="-1411" y="414" />
            </Array>
          </mxGeometry>
        </mxCell>
        <mxCell id="EjViC9yRmzUdTBrnQLS--46" value="" style="endArrow=none;html=1;rounded=1;labelBackgroundColor=none;fontColor=default;strokeColor=#A8201A;" parent="1" edge="1">
          <mxGeometry width="50" height="50" relative="1" as="geometry">
            <mxPoint x="-1190" y="440" as="sourcePoint" />
            <mxPoint x="-1420" y="360" as="targetPoint" />
            <Array as="points">
              <mxPoint x="-920" y="440" />
              <mxPoint x="-920" y="360" />
            </Array>
          </mxGeometry>
        </mxCell>
        <mxCell id="EjViC9yRmzUdTBrnQLS--47" value="Sair" style="text;html=1;align=center;verticalAlign=middle;resizable=0;points=[];autosize=1;strokeColor=#b85450;fillColor=#f8cecc;labelBackgroundColor=none;rounded=1;" parent="1" vertex="1">
          <mxGeometry x="-780" y="1480" width="40" height="30" as="geometry" />
        </mxCell>
        <mxCell id="EjViC9yRmzUdTBrnQLS--48" value="" style="endArrow=none;dashed=1;html=1;rounded=1;labelBackgroundColor=none;fontColor=default;strokeColor=#A8201A;" parent="1" edge="1">
          <mxGeometry width="50" height="50" relative="1" as="geometry">
            <mxPoint x="-840" y="1253" as="sourcePoint" />
            <mxPoint x="-670" y="1253" as="targetPoint" />
          </mxGeometry>
        </mxCell>
        <mxCell id="EjViC9yRmzUdTBrnQLS--50" value="" style="endArrow=classic;html=1;rounded=1;labelBackgroundColor=none;fontColor=default;strokeColor=#A8201A;" parent="1" edge="1">
          <mxGeometry width="50" height="50" relative="1" as="geometry">
            <mxPoint x="-850" y="1480" as="sourcePoint" />
            <mxPoint x="-1610" y="390" as="targetPoint" />
            <Array as="points">
              <mxPoint x="-1690" y="480" />
            </Array>
          </mxGeometry>
        </mxCell>
        <mxCell id="EjViC9yRmzUdTBrnQLS--51" value="" style="endArrow=none;html=1;rounded=1;labelBackgroundColor=none;fontColor=default;strokeColor=#A8201A;" parent="1" edge="1">
          <mxGeometry width="50" height="50" relative="1" as="geometry">
            <mxPoint x="-430" y="1173" as="sourcePoint" />
            <mxPoint x="-60" y="979" as="targetPoint" />
            <Array as="points">
              <mxPoint x="-400" y="1189" />
              <mxPoint x="-60" y="1189" />
            </Array>
          </mxGeometry>
        </mxCell>
        <mxCell id="EjViC9yRmzUdTBrnQLS--52" value="" style="endArrow=none;html=1;rounded=1;labelBackgroundColor=none;fontColor=default;strokeColor=#A8201A;" parent="1" edge="1">
          <mxGeometry width="50" height="50" relative="1" as="geometry">
            <mxPoint x="-530" y="1310" as="sourcePoint" />
            <mxPoint x="-60" y="1250" as="targetPoint" />
            <Array as="points">
              <mxPoint x="-530" y="1340" />
              <mxPoint x="-60" y="1340" />
            </Array>
          </mxGeometry>
        </mxCell>
        <mxCell id="EjViC9yRmzUdTBrnQLS--54" value="Visualizar Curso" style="text;html=1;align=center;verticalAlign=middle;resizable=0;points=[];autosize=1;strokeColor=none;fillColor=none;labelBackgroundColor=none;rounded=1;fontColor=#143642;" parent="1" vertex="1">
          <mxGeometry x="-594.5" y="1236" width="110" height="30" as="geometry" />
        </mxCell>
        <mxCell id="EjViC9yRmzUdTBrnQLS--61" value="Salvar Dados/Cancelar&amp;nbsp;" style="text;html=1;align=center;verticalAlign=middle;resizable=0;points=[];autosize=1;strokeColor=none;fillColor=none;labelBackgroundColor=none;rounded=1;fontColor=#143642;" parent="1" vertex="1">
          <mxGeometry x="-600" y="819" width="150" height="30" as="geometry" />
        </mxCell>
        <mxCell id="EjViC9yRmzUdTBrnQLS--62" value="" style="endArrow=none;dashed=1;html=1;rounded=1;labelBackgroundColor=none;fontColor=default;strokeColor=#A8201A;" parent="1" edge="1">
          <mxGeometry width="50" height="50" relative="1" as="geometry">
            <mxPoint x="-620" y="850" as="sourcePoint" />
            <mxPoint x="-441" y="850" as="targetPoint" />
          </mxGeometry>
        </mxCell>
        <mxCell id="EjViC9yRmzUdTBrnQLS--63" value="Alterar E-mail" style="text;html=1;align=center;verticalAlign=middle;resizable=0;points=[];autosize=1;strokeColor=none;fillColor=none;labelBackgroundColor=none;rounded=1;fontColor=#143642;" parent="1" vertex="1">
          <mxGeometry x="-575" y="699" width="100" height="30" as="geometry" />
        </mxCell>
        <mxCell id="EjViC9yRmzUdTBrnQLS--64" value="" style="endArrow=none;dashed=1;html=1;rounded=1;labelBackgroundColor=none;fontColor=default;strokeColor=#A8201A;" parent="1" edge="1">
          <mxGeometry width="50" height="50" relative="1" as="geometry">
            <mxPoint x="-621" y="730" as="sourcePoint" />
            <mxPoint x="-441" y="730" as="targetPoint" />
          </mxGeometry>
        </mxCell>
        <mxCell id="EjViC9yRmzUdTBrnQLS--65" value="Alterar Senha" style="text;html=1;align=center;verticalAlign=middle;resizable=0;points=[];autosize=1;strokeColor=none;fillColor=none;labelBackgroundColor=none;rounded=1;fontColor=#143642;" parent="1" vertex="1">
          <mxGeometry x="-574" y="778" width="100" height="30" as="geometry" />
        </mxCell>
        <mxCell id="EjViC9yRmzUdTBrnQLS--66" value="" style="endArrow=none;dashed=1;html=1;rounded=1;labelBackgroundColor=none;fontColor=default;strokeColor=#A8201A;" parent="1" edge="1">
          <mxGeometry width="50" height="50" relative="1" as="geometry">
            <mxPoint x="-620" y="809" as="sourcePoint" />
            <mxPoint x="-440" y="809" as="targetPoint" />
          </mxGeometry>
        </mxCell>
        <mxCell id="EjViC9yRmzUdTBrnQLS--67" value="Modal alterar Login" style="text;html=1;align=center;verticalAlign=middle;resizable=0;points=[];autosize=1;strokeColor=none;fillColor=none;labelBackgroundColor=none;rounded=1;fontColor=#143642;" parent="1" vertex="1">
          <mxGeometry x="-375" y="600" width="130" height="30" as="geometry" />
        </mxCell>
        <mxCell id="EjViC9yRmzUdTBrnQLS--68" value="Confirmar/Cancelar" style="text;html=1;align=center;verticalAlign=middle;resizable=0;points=[];autosize=1;strokeColor=none;fillColor=none;labelBackgroundColor=none;rounded=1;fontColor=#143642;" parent="1" vertex="1">
          <mxGeometry x="-375.5" y="631" width="130" height="30" as="geometry" />
        </mxCell>
        <mxCell id="EjViC9yRmzUdTBrnQLS--69" value="" style="endArrow=none;html=1;rounded=1;labelBackgroundColor=none;fontColor=default;strokeColor=#A8201A;" parent="1" edge="1">
          <mxGeometry width="50" height="50" relative="1" as="geometry">
            <mxPoint x="-400" y="631" as="sourcePoint" />
            <mxPoint x="-220" y="630" as="targetPoint" />
          </mxGeometry>
        </mxCell>
        <mxCell id="EjViC9yRmzUdTBrnQLS--70" value="" style="endArrow=classic;html=1;rounded=1;edgeStyle=orthogonalEdgeStyle;labelBackgroundColor=none;fontColor=default;strokeColor=#A8201A;" parent="1" edge="1">
          <mxGeometry width="50" height="50" relative="1" as="geometry">
            <mxPoint x="-440" y="650" as="sourcePoint" />
            <mxPoint x="-395" y="621" as="targetPoint" />
            <Array as="points">
              <mxPoint x="-440" y="650" />
              <mxPoint x="-430" y="650" />
              <mxPoint x="-430" y="621" />
            </Array>
          </mxGeometry>
        </mxCell>
        <mxCell id="EjViC9yRmzUdTBrnQLS--72" value="" style="edgeStyle=orthogonalEdgeStyle;orthogonalLoop=1;jettySize=auto;html=1;entryX=0.777;entryY=0.02;entryDx=0;entryDy=0;entryPerimeter=0;rounded=1;labelBackgroundColor=none;fontColor=default;strokeColor=#A8201A;" parent="1" edge="1">
          <mxGeometry relative="1" as="geometry">
            <mxPoint x="-220" y="640" as="sourcePoint" />
            <mxPoint x="-530" y="608" as="targetPoint" />
            <Array as="points">
              <mxPoint x="-220" y="641" />
              <mxPoint x="-190" y="641" />
              <mxPoint x="-190" y="601" />
              <mxPoint x="-530" y="601" />
            </Array>
          </mxGeometry>
        </mxCell>
        <mxCell id="EjViC9yRmzUdTBrnQLS--73" value="Modal alterar E-mail" style="text;html=1;align=center;verticalAlign=middle;resizable=0;points=[];autosize=1;strokeColor=none;fillColor=none;labelBackgroundColor=none;rounded=1;fontColor=#143642;" parent="1" vertex="1">
          <mxGeometry x="-375" y="670" width="130" height="30" as="geometry" />
        </mxCell>
        <mxCell id="EjViC9yRmzUdTBrnQLS--74" value="Confirmar/Cancelar" style="text;html=1;align=center;verticalAlign=middle;resizable=0;points=[];autosize=1;strokeColor=none;fillColor=none;labelBackgroundColor=none;rounded=1;fontColor=#143642;" parent="1" vertex="1">
          <mxGeometry x="-375.5" y="701" width="130" height="30" as="geometry" />
        </mxCell>
        <mxCell id="EjViC9yRmzUdTBrnQLS--75" value="" style="endArrow=none;html=1;rounded=1;labelBackgroundColor=none;fontColor=default;strokeColor=#A8201A;" parent="1" edge="1">
          <mxGeometry width="50" height="50" relative="1" as="geometry">
            <mxPoint x="-400" y="701" as="sourcePoint" />
            <mxPoint x="-220" y="700" as="targetPoint" />
          </mxGeometry>
        </mxCell>
        <mxCell id="EjViC9yRmzUdTBrnQLS--76" value="" style="endArrow=classic;html=1;rounded=1;edgeStyle=orthogonalEdgeStyle;labelBackgroundColor=none;fontColor=default;strokeColor=#A8201A;" parent="1" edge="1">
          <mxGeometry width="50" height="50" relative="1" as="geometry">
            <mxPoint x="-450" y="720" as="sourcePoint" />
            <mxPoint x="-405" y="691" as="targetPoint" />
            <Array as="points">
              <mxPoint x="-440" y="720" />
              <mxPoint x="-440" y="690" />
            </Array>
          </mxGeometry>
        </mxCell>
        <mxCell id="EjViC9yRmzUdTBrnQLS--77" value="" style="endArrow=none;html=1;rounded=1;labelBackgroundColor=none;fontColor=default;strokeColor=#A8201A;" parent="1" edge="1">
          <mxGeometry width="50" height="50" relative="1" as="geometry">
            <mxPoint x="-210" y="720" as="sourcePoint" />
            <mxPoint x="-200" y="640" as="targetPoint" />
            <Array as="points">
              <mxPoint x="-200" y="720" />
            </Array>
          </mxGeometry>
        </mxCell>
        <mxCell id="EjViC9yRmzUdTBrnQLS--78" value="" style="endArrow=classic;html=1;rounded=1;edgeStyle=orthogonalEdgeStyle;labelBackgroundColor=none;fontColor=default;strokeColor=#A8201A;" parent="1" edge="1">
          <mxGeometry width="50" height="50" relative="1" as="geometry">
            <mxPoint x="-450" y="792" as="sourcePoint" />
            <mxPoint x="-405" y="763" as="targetPoint" />
            <Array as="points">
              <mxPoint x="-440" y="792" />
              <mxPoint x="-440" y="762" />
            </Array>
          </mxGeometry>
        </mxCell>
        <mxCell id="EjViC9yRmzUdTBrnQLS--79" value="Modal alterar Senha" style="text;html=1;align=center;verticalAlign=middle;resizable=0;points=[];autosize=1;strokeColor=none;fillColor=none;labelBackgroundColor=none;rounded=1;fontColor=#143642;" parent="1" vertex="1">
          <mxGeometry x="-375" y="751" width="130" height="30" as="geometry" />
        </mxCell>
        <mxCell id="EjViC9yRmzUdTBrnQLS--80" value="Confirmar/Cancelar" style="text;html=1;align=center;verticalAlign=middle;resizable=0;points=[];autosize=1;strokeColor=none;fillColor=none;labelBackgroundColor=none;rounded=1;fontColor=#143642;" parent="1" vertex="1">
          <mxGeometry x="-375.5" y="781" width="130" height="30" as="geometry" />
        </mxCell>
        <mxCell id="EjViC9yRmzUdTBrnQLS--81" value="" style="endArrow=none;html=1;rounded=1;labelBackgroundColor=none;fontColor=default;strokeColor=#A8201A;" parent="1" edge="1">
          <mxGeometry width="50" height="50" relative="1" as="geometry">
            <mxPoint x="-400" y="781" as="sourcePoint" />
            <mxPoint x="-220" y="780" as="targetPoint" />
          </mxGeometry>
        </mxCell>
        <mxCell id="EjViC9yRmzUdTBrnQLS--82" value="" style="endArrow=none;html=1;rounded=1;labelBackgroundColor=none;fontColor=default;strokeColor=#A8201A;" parent="1" edge="1">
          <mxGeometry width="50" height="50" relative="1" as="geometry">
            <mxPoint x="-210" y="798" as="sourcePoint" />
            <mxPoint x="-200" y="718" as="targetPoint" />
            <Array as="points">
              <mxPoint x="-200" y="798" />
            </Array>
          </mxGeometry>
        </mxCell>
        <mxCell id="SrXy7MAG5ZEmLaUpLs6j-1" value="Dashboard ADM" style="text;html=1;align=center;verticalAlign=middle;resizable=0;points=[];autosize=1;strokeColor=none;fillColor=none;labelBackgroundColor=none;rounded=1;fontColor=#143642;" vertex="1" parent="1">
          <mxGeometry x="-800" y="10" width="110" height="30" as="geometry" />
        </mxCell>
        <mxCell id="SrXy7MAG5ZEmLaUpLs6j-2" value="Vagas" style="text;html=1;align=center;verticalAlign=middle;resizable=0;points=[];autosize=1;strokeColor=none;fillColor=none;labelBackgroundColor=none;rounded=1;fontColor=#143642;" vertex="1" parent="1">
          <mxGeometry x="-775" y="53" width="60" height="30" as="geometry" />
        </mxCell>
        <mxCell id="SrXy7MAG5ZEmLaUpLs6j-3" value="" style="endArrow=none;dashed=1;html=1;rounded=1;labelBackgroundColor=none;fontColor=default;strokeColor=#A8201A;" edge="1" parent="1">
          <mxGeometry width="50" height="50" relative="1" as="geometry">
            <mxPoint x="-826" y="80" as="sourcePoint" />
            <mxPoint x="-660" y="80" as="targetPoint" />
          </mxGeometry>
        </mxCell>
        <mxCell id="SrXy7MAG5ZEmLaUpLs6j-4" value="" style="endArrow=none;html=1;rounded=1;labelBackgroundColor=none;fontColor=default;strokeColor=#A8201A;" edge="1" parent="1">
          <mxGeometry width="50" height="50" relative="1" as="geometry">
            <mxPoint x="-825" y="40" as="sourcePoint" />
            <mxPoint x="-660" y="40" as="targetPoint" />
          </mxGeometry>
        </mxCell>
        <mxCell id="SrXy7MAG5ZEmLaUpLs6j-6" value="Cursos" style="text;html=1;align=center;verticalAlign=middle;resizable=0;points=[];autosize=1;strokeColor=none;fillColor=none;labelBackgroundColor=none;rounded=1;fontColor=#143642;" vertex="1" parent="1">
          <mxGeometry x="-775" y="153" width="60" height="30" as="geometry" />
        </mxCell>
        <mxCell id="SrXy7MAG5ZEmLaUpLs6j-7" value="" style="endArrow=none;dashed=1;html=1;rounded=1;labelBackgroundColor=none;fontColor=default;strokeColor=#A8201A;" edge="1" parent="1">
          <mxGeometry width="50" height="50" relative="1" as="geometry">
            <mxPoint x="-826" y="200" as="sourcePoint" />
            <mxPoint x="-660" y="200" as="targetPoint" />
          </mxGeometry>
        </mxCell>
        <mxCell id="SrXy7MAG5ZEmLaUpLs6j-8" value="Notícias" style="text;html=1;align=center;verticalAlign=middle;resizable=0;points=[];autosize=1;strokeColor=none;fillColor=none;labelBackgroundColor=none;rounded=1;fontColor=#143642;" vertex="1" parent="1">
          <mxGeometry x="-780" y="273" width="70" height="30" as="geometry" />
        </mxCell>
        <mxCell id="SrXy7MAG5ZEmLaUpLs6j-9" value="" style="endArrow=none;dashed=1;html=1;rounded=1;labelBackgroundColor=none;fontColor=default;strokeColor=#A8201A;" edge="1" parent="1">
          <mxGeometry width="50" height="50" relative="1" as="geometry">
            <mxPoint x="-826" y="300" as="sourcePoint" />
            <mxPoint x="-660" y="300" as="targetPoint" />
          </mxGeometry>
        </mxCell>
        <mxCell id="SrXy7MAG5ZEmLaUpLs6j-10" value="" style="endArrow=classic;html=1;rounded=1;edgeStyle=orthogonalEdgeStyle;labelBackgroundColor=none;fontColor=default;strokeColor=#A8201A;" edge="1" parent="1" target="SrXy7MAG5ZEmLaUpLs6j-11">
          <mxGeometry width="50" height="50" relative="1" as="geometry">
            <mxPoint x="-640" y="60" as="sourcePoint" />
            <mxPoint x="-480" y="6" as="targetPoint" />
            <Array as="points">
              <mxPoint x="-630" y="60" />
              <mxPoint x="-630" y="20" />
            </Array>
          </mxGeometry>
        </mxCell>
        <mxCell id="SrXy7MAG5ZEmLaUpLs6j-11" value="Listas de vagas" style="text;html=1;align=center;verticalAlign=middle;resizable=0;points=[];autosize=1;strokeColor=none;fillColor=none;labelBackgroundColor=none;rounded=1;fontColor=#143642;" vertex="1" parent="1">
          <mxGeometry x="-585" y="11" width="110" height="30" as="geometry" />
        </mxCell>
        <mxCell id="SrXy7MAG5ZEmLaUpLs6j-12" value="" style="endArrow=none;html=1;rounded=1;labelBackgroundColor=none;fontColor=default;strokeColor=#A8201A;" edge="1" parent="1">
          <mxGeometry width="50" height="50" relative="1" as="geometry">
            <mxPoint x="-620" y="41" as="sourcePoint" />
            <mxPoint x="-438" y="40" as="targetPoint" />
          </mxGeometry>
        </mxCell>
        <mxCell id="SrXy7MAG5ZEmLaUpLs6j-13" value="Nova Vaga/Visualizar/Editar" style="text;html=1;align=center;verticalAlign=middle;resizable=0;points=[];autosize=1;strokeColor=none;fillColor=none;labelBackgroundColor=none;rounded=1;fontColor=#143642;" vertex="1" parent="1">
          <mxGeometry x="-615" y="55" width="170" height="30" as="geometry" />
        </mxCell>
        <mxCell id="SrXy7MAG5ZEmLaUpLs6j-14" value="Formulário Vaga" style="text;html=1;align=center;verticalAlign=middle;resizable=0;points=[];autosize=1;strokeColor=none;fillColor=none;labelBackgroundColor=none;rounded=1;fontColor=#143642;" vertex="1" parent="1">
          <mxGeometry x="-375" y="10" width="110" height="30" as="geometry" />
        </mxCell>
        <mxCell id="SrXy7MAG5ZEmLaUpLs6j-16" value="" style="endArrow=none;html=1;rounded=1;labelBackgroundColor=none;fontColor=default;strokeColor=#A8201A;" edge="1" parent="1">
          <mxGeometry width="50" height="50" relative="1" as="geometry">
            <mxPoint x="-405" y="39" as="sourcePoint" />
            <mxPoint x="-215" y="39" as="targetPoint" />
          </mxGeometry>
        </mxCell>
        <mxCell id="SrXy7MAG5ZEmLaUpLs6j-17" value="" style="endArrow=classic;html=1;rounded=1;edgeStyle=orthogonalEdgeStyle;labelBackgroundColor=none;fontColor=default;strokeColor=#A8201A;" edge="1" parent="1">
          <mxGeometry width="50" height="50" relative="1" as="geometry">
            <mxPoint x="-440" y="55" as="sourcePoint" />
            <mxPoint x="-390" y="30" as="targetPoint" />
            <Array as="points">
              <mxPoint x="-430" y="55" />
              <mxPoint x="-430" y="30" />
              <mxPoint x="-395" y="30" />
            </Array>
          </mxGeometry>
        </mxCell>
        <mxCell id="SrXy7MAG5ZEmLaUpLs6j-18" value="" style="endArrow=none;dashed=1;html=1;rounded=1;labelBackgroundColor=none;fontColor=default;strokeColor=#A8201A;" edge="1" parent="1">
          <mxGeometry width="50" height="50" relative="1" as="geometry">
            <mxPoint x="-388" y="80" as="sourcePoint" />
            <mxPoint x="-222" y="80" as="targetPoint" />
          </mxGeometry>
        </mxCell>
        <mxCell id="SrXy7MAG5ZEmLaUpLs6j-20" value="" style="endArrow=none;dashed=1;html=1;rounded=1;labelBackgroundColor=none;fontColor=default;strokeColor=#A8201A;" edge="1" parent="1">
          <mxGeometry width="50" height="50" relative="1" as="geometry">
            <mxPoint x="-608" y="80" as="sourcePoint" />
            <mxPoint x="-442" y="80" as="targetPoint" />
          </mxGeometry>
        </mxCell>
        <mxCell id="SrXy7MAG5ZEmLaUpLs6j-21" value="" style="endArrow=none;dashed=1;html=1;rounded=1;labelBackgroundColor=none;fontColor=default;strokeColor=#A8201A;" edge="1" parent="1">
          <mxGeometry width="50" height="50" relative="1" as="geometry">
            <mxPoint x="-1360" y="209" as="sourcePoint" />
            <mxPoint x="-1170" y="209" as="targetPoint" />
          </mxGeometry>
        </mxCell>
        <mxCell id="SrXy7MAG5ZEmLaUpLs6j-22" value="Login ADM" style="text;html=1;align=center;verticalAlign=middle;resizable=0;points=[];autosize=1;strokeColor=none;fillColor=none;rounded=1;labelBackgroundColor=none;fontColor=#143642;" vertex="1" parent="1">
          <mxGeometry x="-1310" y="218" width="80" height="30" as="geometry" />
        </mxCell>
        <mxCell id="SrXy7MAG5ZEmLaUpLs6j-23" value="" style="endArrow=classic;html=1;rounded=1;edgeStyle=orthogonalEdgeStyle;labelBackgroundColor=none;fontColor=default;strokeColor=#A8201A;" edge="1" parent="1">
          <mxGeometry width="50" height="50" relative="1" as="geometry">
            <mxPoint x="-1171" y="234" as="sourcePoint" />
            <mxPoint x="-1131" y="214" as="targetPoint" />
            <Array as="points">
              <mxPoint x="-1151" y="214" />
            </Array>
          </mxGeometry>
        </mxCell>
        <mxCell id="SrXy7MAG5ZEmLaUpLs6j-24" value="Formulário Login ADM" style="text;html=1;align=center;verticalAlign=middle;resizable=0;points=[];autosize=1;strokeColor=none;fillColor=none;labelBackgroundColor=none;rounded=1;fontColor=#143642;" vertex="1" parent="1">
          <mxGeometry x="-1119" y="186" width="140" height="30" as="geometry" />
        </mxCell>
        <mxCell id="SrXy7MAG5ZEmLaUpLs6j-25" value="Fazer Login" style="text;html=1;align=center;verticalAlign=middle;resizable=0;points=[];autosize=1;strokeColor=none;fillColor=none;labelBackgroundColor=none;rounded=1;fontColor=#143642;" vertex="1" parent="1">
          <mxGeometry x="-1098" y="210" width="90" height="30" as="geometry" />
        </mxCell>
        <mxCell id="SrXy7MAG5ZEmLaUpLs6j-26" value="" style="endArrow=none;html=1;rounded=1;labelBackgroundColor=none;fontColor=default;strokeColor=#A8201A;" edge="1" parent="1">
          <mxGeometry width="50" height="50" relative="1" as="geometry">
            <mxPoint x="-1139" y="210" as="sourcePoint" />
            <mxPoint x="-949" y="210" as="targetPoint" />
          </mxGeometry>
        </mxCell>
        <mxCell id="SrXy7MAG5ZEmLaUpLs6j-27" value="" style="endArrow=classic;html=1;rounded=1;edgeStyle=orthogonalEdgeStyle;labelBackgroundColor=none;fontColor=default;strokeColor=#A8201A;" edge="1" parent="1">
          <mxGeometry width="50" height="50" relative="1" as="geometry">
            <mxPoint x="-950" y="220" as="sourcePoint" />
            <mxPoint x="-830" y="20" as="targetPoint" />
            <Array as="points">
              <mxPoint x="-950" y="220" />
              <mxPoint x="-940" y="220" />
              <mxPoint x="-940" y="20" />
            </Array>
          </mxGeometry>
        </mxCell>
        <mxCell id="SrXy7MAG5ZEmLaUpLs6j-30" value="User/ADM" style="text;html=1;align=center;verticalAlign=middle;resizable=0;points=[];autosize=1;strokeColor=none;fillColor=none;rounded=1;labelBackgroundColor=none;fontColor=#143642;" vertex="1" parent="1">
          <mxGeometry x="-1705" y="367" width="80" height="30" as="geometry" />
        </mxCell>
        <mxCell id="SrXy7MAG5ZEmLaUpLs6j-31" value="" style="endArrow=classic;html=1;rounded=1;edgeStyle=orthogonalEdgeStyle;labelBackgroundColor=none;fontColor=default;strokeColor=#A8201A;" edge="1" parent="1">
          <mxGeometry width="50" height="50" relative="1" as="geometry">
            <mxPoint x="-1190" y="188" as="sourcePoint" />
            <mxPoint x="-850" y="410" as="targetPoint" />
            <Array as="points">
              <mxPoint x="-870" y="188" />
              <mxPoint x="-870" y="410" />
              <mxPoint x="-850" y="410" />
            </Array>
          </mxGeometry>
        </mxCell>
        <mxCell id="SrXy7MAG5ZEmLaUpLs6j-32" value="Salvar/Cancelar" style="text;html=1;align=center;verticalAlign=middle;resizable=0;points=[];autosize=1;strokeColor=none;fillColor=none;rounded=1;labelBackgroundColor=none;fontColor=#143642;" vertex="1" parent="1">
          <mxGeometry x="-369" y="56" width="110" height="30" as="geometry" />
        </mxCell>
        <mxCell id="SrXy7MAG5ZEmLaUpLs6j-33" value="Excluir" style="text;html=1;align=center;verticalAlign=middle;resizable=0;points=[];autosize=1;strokeColor=none;fillColor=none;rounded=1;labelBackgroundColor=none;fontColor=#143642;" vertex="1" parent="1">
          <mxGeometry x="-570" y="78" width="60" height="30" as="geometry" />
        </mxCell>
        <mxCell id="SrXy7MAG5ZEmLaUpLs6j-36" value="" style="endArrow=none;html=1;rounded=1;labelBackgroundColor=none;fontColor=default;strokeColor=#A8201A;" edge="1" parent="1">
          <mxGeometry width="50" height="50" relative="1" as="geometry">
            <mxPoint x="-630" y="50" as="sourcePoint" />
            <mxPoint x="-595" y="93" as="targetPoint" />
            <Array as="points">
              <mxPoint x="-630" y="93" />
            </Array>
          </mxGeometry>
        </mxCell>
        <mxCell id="SrXy7MAG5ZEmLaUpLs6j-37" value="" style="edgeStyle=orthogonalEdgeStyle;orthogonalLoop=1;jettySize=auto;html=1;entryX=0.777;entryY=0.02;entryDx=0;entryDy=0;entryPerimeter=0;rounded=1;labelBackgroundColor=none;fontColor=default;strokeColor=#A8201A;" edge="1" parent="1">
          <mxGeometry relative="1" as="geometry">
            <mxPoint x="-220" y="70" as="sourcePoint" />
            <mxPoint x="-520" y="18" as="targetPoint" />
            <Array as="points">
              <mxPoint x="-210" y="70" />
              <mxPoint x="-200" y="70" />
              <mxPoint x="-200" y="11" />
              <mxPoint x="-520" y="11" />
            </Array>
          </mxGeometry>
        </mxCell>
        <mxCell id="SrXy7MAG5ZEmLaUpLs6j-38" value="" style="endArrow=classic;html=1;rounded=1;edgeStyle=orthogonalEdgeStyle;labelBackgroundColor=none;fontColor=default;entryX=0.038;entryY=-0.147;entryDx=0;entryDy=0;entryPerimeter=0;strokeColor=#A8201A;" edge="1" parent="1" target="SrXy7MAG5ZEmLaUpLs6j-39">
          <mxGeometry width="50" height="50" relative="1" as="geometry">
            <mxPoint x="-640" y="170" as="sourcePoint" />
            <mxPoint x="-480" y="116" as="targetPoint" />
            <Array as="points">
              <mxPoint x="-630" y="170" />
              <mxPoint x="-630" y="131" />
            </Array>
          </mxGeometry>
        </mxCell>
        <mxCell id="SrXy7MAG5ZEmLaUpLs6j-39" value="Listas de Cursos" style="text;html=1;align=center;verticalAlign=middle;resizable=0;points=[];autosize=1;strokeColor=none;fillColor=none;labelBackgroundColor=none;rounded=1;fontColor=#143642;" vertex="1" parent="1">
          <mxGeometry x="-585" y="135" width="110" height="30" as="geometry" />
        </mxCell>
        <mxCell id="SrXy7MAG5ZEmLaUpLs6j-40" value="" style="endArrow=none;html=1;rounded=1;labelBackgroundColor=none;fontColor=default;strokeColor=#A8201A;" edge="1" parent="1">
          <mxGeometry width="50" height="50" relative="1" as="geometry">
            <mxPoint x="-620" y="161" as="sourcePoint" />
            <mxPoint x="-438" y="160" as="targetPoint" />
          </mxGeometry>
        </mxCell>
        <mxCell id="SrXy7MAG5ZEmLaUpLs6j-41" value="Nova Curso/Visualizar/Editar" style="text;html=1;align=center;verticalAlign=middle;resizable=0;points=[];autosize=1;strokeColor=none;fillColor=none;labelBackgroundColor=none;rounded=1;fontColor=#143642;" vertex="1" parent="1">
          <mxGeometry x="-620" y="174" width="180" height="30" as="geometry" />
        </mxCell>
        <mxCell id="SrXy7MAG5ZEmLaUpLs6j-42" value="Formulário Curso" style="text;html=1;align=center;verticalAlign=middle;resizable=0;points=[];autosize=1;strokeColor=none;fillColor=none;labelBackgroundColor=none;rounded=1;fontColor=#143642;" vertex="1" parent="1">
          <mxGeometry x="-380" y="134" width="120" height="30" as="geometry" />
        </mxCell>
        <mxCell id="SrXy7MAG5ZEmLaUpLs6j-43" value="" style="endArrow=none;html=1;rounded=1;labelBackgroundColor=none;fontColor=default;strokeColor=#A8201A;" edge="1" parent="1">
          <mxGeometry width="50" height="50" relative="1" as="geometry">
            <mxPoint x="-405" y="159" as="sourcePoint" />
            <mxPoint x="-215" y="159" as="targetPoint" />
          </mxGeometry>
        </mxCell>
        <mxCell id="SrXy7MAG5ZEmLaUpLs6j-45" value="" style="endArrow=none;dashed=1;html=1;rounded=1;labelBackgroundColor=none;fontColor=default;strokeColor=#A8201A;" edge="1" parent="1">
          <mxGeometry width="50" height="50" relative="1" as="geometry">
            <mxPoint x="-388" y="200" as="sourcePoint" />
            <mxPoint x="-222" y="200" as="targetPoint" />
          </mxGeometry>
        </mxCell>
        <mxCell id="SrXy7MAG5ZEmLaUpLs6j-46" value="" style="endArrow=none;dashed=1;html=1;rounded=1;labelBackgroundColor=none;fontColor=default;strokeColor=#A8201A;" edge="1" parent="1">
          <mxGeometry width="50" height="50" relative="1" as="geometry">
            <mxPoint x="-608" y="200" as="sourcePoint" />
            <mxPoint x="-442" y="200" as="targetPoint" />
          </mxGeometry>
        </mxCell>
        <mxCell id="SrXy7MAG5ZEmLaUpLs6j-47" value="Salvar/Cancelar" style="text;html=1;align=center;verticalAlign=middle;resizable=0;points=[];autosize=1;strokeColor=none;fillColor=none;rounded=1;labelBackgroundColor=none;fontColor=#143642;" vertex="1" parent="1">
          <mxGeometry x="-369" y="175" width="110" height="30" as="geometry" />
        </mxCell>
        <mxCell id="SrXy7MAG5ZEmLaUpLs6j-48" value="" style="endArrow=none;html=1;rounded=1;labelBackgroundColor=none;fontColor=default;strokeColor=#A8201A;" edge="1" parent="1">
          <mxGeometry width="50" height="50" relative="1" as="geometry">
            <mxPoint x="-630" y="150" as="sourcePoint" />
            <mxPoint x="-610" y="210" as="targetPoint" />
            <Array as="points">
              <mxPoint x="-630" y="210" />
            </Array>
          </mxGeometry>
        </mxCell>
        <mxCell id="SrXy7MAG5ZEmLaUpLs6j-49" value="" style="edgeStyle=orthogonalEdgeStyle;orthogonalLoop=1;jettySize=auto;html=1;entryX=0.777;entryY=0.02;entryDx=0;entryDy=0;entryPerimeter=0;rounded=1;labelBackgroundColor=none;fontColor=default;strokeColor=#A8201A;" edge="1" parent="1">
          <mxGeometry relative="1" as="geometry">
            <mxPoint x="-220" y="180" as="sourcePoint" />
            <mxPoint x="-520" y="138" as="targetPoint" />
            <Array as="points">
              <mxPoint x="-200" y="180" />
              <mxPoint x="-200" y="131" />
              <mxPoint x="-520" y="131" />
            </Array>
          </mxGeometry>
        </mxCell>
        <mxCell id="SrXy7MAG5ZEmLaUpLs6j-50" value="" style="endArrow=classic;html=1;rounded=1;edgeStyle=orthogonalEdgeStyle;labelBackgroundColor=none;fontColor=default;entryX=0.038;entryY=-0.147;entryDx=0;entryDy=0;entryPerimeter=0;strokeColor=#A8201A;" edge="1" parent="1" target="SrXy7MAG5ZEmLaUpLs6j-51">
          <mxGeometry width="50" height="50" relative="1" as="geometry">
            <mxPoint x="-640" y="290" as="sourcePoint" />
            <mxPoint x="-480" y="236" as="targetPoint" />
            <Array as="points">
              <mxPoint x="-630" y="290" />
              <mxPoint x="-630" y="251" />
            </Array>
          </mxGeometry>
        </mxCell>
        <mxCell id="SrXy7MAG5ZEmLaUpLs6j-51" value="Listas de Notícias" style="text;html=1;align=center;verticalAlign=middle;resizable=0;points=[];autosize=1;strokeColor=none;fillColor=none;labelBackgroundColor=none;rounded=1;fontColor=#143642;" vertex="1" parent="1">
          <mxGeometry x="-590" y="255" width="120" height="30" as="geometry" />
        </mxCell>
        <mxCell id="SrXy7MAG5ZEmLaUpLs6j-52" value="" style="endArrow=none;html=1;rounded=1;labelBackgroundColor=none;fontColor=default;strokeColor=#A8201A;" edge="1" parent="1">
          <mxGeometry width="50" height="50" relative="1" as="geometry">
            <mxPoint x="-620" y="281" as="sourcePoint" />
            <mxPoint x="-438" y="280" as="targetPoint" />
          </mxGeometry>
        </mxCell>
        <mxCell id="SrXy7MAG5ZEmLaUpLs6j-53" value="Nova Notícia/Visualizar/Editar" style="text;html=1;align=center;verticalAlign=middle;resizable=0;points=[];autosize=1;strokeColor=none;fillColor=none;labelBackgroundColor=none;rounded=1;fontColor=#143642;" vertex="1" parent="1">
          <mxGeometry x="-620" y="294" width="180" height="30" as="geometry" />
        </mxCell>
        <mxCell id="SrXy7MAG5ZEmLaUpLs6j-54" value="Formulário Notícia" style="text;html=1;align=center;verticalAlign=middle;resizable=0;points=[];autosize=1;strokeColor=none;fillColor=none;labelBackgroundColor=none;rounded=1;fontColor=#143642;" vertex="1" parent="1">
          <mxGeometry x="-380" y="254" width="120" height="30" as="geometry" />
        </mxCell>
        <mxCell id="SrXy7MAG5ZEmLaUpLs6j-55" value="" style="endArrow=none;html=1;rounded=1;labelBackgroundColor=none;fontColor=default;strokeColor=#A8201A;" edge="1" parent="1">
          <mxGeometry width="50" height="50" relative="1" as="geometry">
            <mxPoint x="-405" y="279" as="sourcePoint" />
            <mxPoint x="-215" y="279" as="targetPoint" />
          </mxGeometry>
        </mxCell>
        <mxCell id="SrXy7MAG5ZEmLaUpLs6j-57" value="" style="endArrow=none;dashed=1;html=1;rounded=1;labelBackgroundColor=none;fontColor=default;strokeColor=#A8201A;" edge="1" parent="1">
          <mxGeometry width="50" height="50" relative="1" as="geometry">
            <mxPoint x="-388" y="320" as="sourcePoint" />
            <mxPoint x="-222" y="320" as="targetPoint" />
          </mxGeometry>
        </mxCell>
        <mxCell id="SrXy7MAG5ZEmLaUpLs6j-58" value="" style="endArrow=none;dashed=1;html=1;rounded=1;labelBackgroundColor=none;fontColor=default;strokeColor=#A8201A;" edge="1" parent="1">
          <mxGeometry width="50" height="50" relative="1" as="geometry">
            <mxPoint x="-608" y="320" as="sourcePoint" />
            <mxPoint x="-442" y="320" as="targetPoint" />
          </mxGeometry>
        </mxCell>
        <mxCell id="SrXy7MAG5ZEmLaUpLs6j-59" value="Salvar/Cancelar" style="text;html=1;align=center;verticalAlign=middle;resizable=0;points=[];autosize=1;strokeColor=none;fillColor=none;rounded=1;labelBackgroundColor=none;fontColor=#143642;" vertex="1" parent="1">
          <mxGeometry x="-369" y="288" width="110" height="30" as="geometry" />
        </mxCell>
        <mxCell id="SrXy7MAG5ZEmLaUpLs6j-60" value="" style="endArrow=none;html=1;rounded=1;labelBackgroundColor=none;fontColor=default;strokeColor=#A8201A;" edge="1" parent="1">
          <mxGeometry width="50" height="50" relative="1" as="geometry">
            <mxPoint x="-630" y="270" as="sourcePoint" />
            <mxPoint x="-610" y="333" as="targetPoint" />
            <Array as="points">
              <mxPoint x="-630" y="333" />
            </Array>
          </mxGeometry>
        </mxCell>
        <mxCell id="SrXy7MAG5ZEmLaUpLs6j-61" value="" style="edgeStyle=orthogonalEdgeStyle;orthogonalLoop=1;jettySize=auto;html=1;entryX=0.777;entryY=0.02;entryDx=0;entryDy=0;entryPerimeter=0;rounded=1;labelBackgroundColor=none;fontColor=default;strokeColor=#A8201A;" edge="1" parent="1">
          <mxGeometry relative="1" as="geometry">
            <mxPoint x="-210" y="280" as="sourcePoint" />
            <mxPoint x="-520" y="248" as="targetPoint" />
            <Array as="points">
              <mxPoint x="-210" y="281" />
              <mxPoint x="-180" y="281" />
              <mxPoint x="-180" y="241" />
              <mxPoint x="-520" y="241" />
            </Array>
          </mxGeometry>
        </mxCell>
        <mxCell id="SrXy7MAG5ZEmLaUpLs6j-62" value="" style="endArrow=none;dashed=1;html=1;rounded=1;labelBackgroundColor=none;fontColor=default;strokeColor=#A8201A;" edge="1" parent="1">
          <mxGeometry width="50" height="50" relative="1" as="geometry">
            <mxPoint x="-850" y="360" as="sourcePoint" />
            <mxPoint y="360" as="targetPoint" />
          </mxGeometry>
        </mxCell>
        <mxCell id="SrXy7MAG5ZEmLaUpLs6j-63" value="" style="endArrow=classic;html=1;rounded=1;edgeStyle=orthogonalEdgeStyle;labelBackgroundColor=none;fontColor=default;strokeColor=#A8201A;" edge="1" parent="1">
          <mxGeometry width="50" height="50" relative="1" as="geometry">
            <mxPoint x="-440" y="175" as="sourcePoint" />
            <mxPoint x="-390" y="150" as="targetPoint" />
            <Array as="points">
              <mxPoint x="-430" y="175" />
              <mxPoint x="-430" y="150" />
              <mxPoint x="-395" y="150" />
            </Array>
          </mxGeometry>
        </mxCell>
        <mxCell id="SrXy7MAG5ZEmLaUpLs6j-64" value="Excluir" style="text;html=1;align=center;verticalAlign=middle;resizable=0;points=[];autosize=1;strokeColor=none;fillColor=none;rounded=1;labelBackgroundColor=none;fontColor=#143642;" vertex="1" parent="1">
          <mxGeometry x="-570" y="198" width="60" height="30" as="geometry" />
        </mxCell>
        <mxCell id="SrXy7MAG5ZEmLaUpLs6j-65" value="Excluir" style="text;html=1;align=center;verticalAlign=middle;resizable=0;points=[];autosize=1;strokeColor=none;fillColor=none;rounded=1;labelBackgroundColor=none;fontColor=#143642;" vertex="1" parent="1">
          <mxGeometry x="-570" y="318" width="60" height="30" as="geometry" />
        </mxCell>
        <mxCell id="SrXy7MAG5ZEmLaUpLs6j-66" value="" style="endArrow=classic;html=1;rounded=1;edgeStyle=orthogonalEdgeStyle;labelBackgroundColor=none;fontColor=default;strokeColor=#A8201A;" edge="1" parent="1">
          <mxGeometry width="50" height="50" relative="1" as="geometry">
            <mxPoint x="-440" y="295" as="sourcePoint" />
            <mxPoint x="-390" y="270" as="targetPoint" />
            <Array as="points">
              <mxPoint x="-430" y="295" />
              <mxPoint x="-430" y="270" />
              <mxPoint x="-395" y="270" />
            </Array>
          </mxGeometry>
        </mxCell>
        <mxCell id="SrXy7MAG5ZEmLaUpLs6j-67" value="" style="endArrow=none;dashed=1;html=1;rounded=1;labelBackgroundColor=none;fontColor=default;strokeColor=#A8201A;" edge="1" parent="1">
          <mxGeometry width="50" height="50" relative="1" as="geometry">
            <mxPoint x="-1140" y="233" as="sourcePoint" />
            <mxPoint x="-950" y="233" as="targetPoint" />
          </mxGeometry>
        </mxCell>
        <mxCell id="SrXy7MAG5ZEmLaUpLs6j-68" value="Esqueceu a Senha" style="text;html=1;align=center;verticalAlign=middle;resizable=0;points=[];autosize=1;strokeColor=none;fillColor=none;labelBackgroundColor=none;rounded=1;fontColor=#143642;" vertex="1" parent="1">
          <mxGeometry x="-1099" y="231" width="120" height="30" as="geometry" />
        </mxCell>
        <mxCell id="SrXy7MAG5ZEmLaUpLs6j-69" value="Notificações" style="text;html=1;align=center;verticalAlign=middle;resizable=0;points=[];autosize=1;strokeColor=none;fillColor=none;labelBackgroundColor=none;rounded=1;fontColor=#143642;" vertex="1" parent="1">
          <mxGeometry x="-796" y="1388" width="90" height="30" as="geometry" />
        </mxCell>
        <mxCell id="SrXy7MAG5ZEmLaUpLs6j-70" value="" style="endArrow=classic;html=1;rounded=1;edgeStyle=orthogonalEdgeStyle;labelBackgroundColor=none;fontColor=default;strokeColor=#A8201A;" edge="1" parent="1">
          <mxGeometry width="50" height="50" relative="1" as="geometry">
            <mxPoint x="-661" y="1405" as="sourcePoint" />
            <mxPoint x="-621" y="1385" as="targetPoint" />
            <Array as="points">
              <mxPoint x="-641" y="1385" />
            </Array>
          </mxGeometry>
        </mxCell>
        <mxCell id="SrXy7MAG5ZEmLaUpLs6j-71" value="Visualização Notificações" style="text;html=1;align=center;verticalAlign=middle;resizable=0;points=[];autosize=1;strokeColor=none;fillColor=none;labelBackgroundColor=none;rounded=1;fontColor=#143642;" vertex="1" parent="1">
          <mxGeometry x="-610" y="1360" width="160" height="30" as="geometry" />
        </mxCell>
        <mxCell id="SrXy7MAG5ZEmLaUpLs6j-72" value="" style="endArrow=none;html=1;rounded=1;labelBackgroundColor=none;fontColor=default;strokeColor=#A8201A;" edge="1" parent="1">
          <mxGeometry width="50" height="50" relative="1" as="geometry">
            <mxPoint x="-620" y="1391" as="sourcePoint" />
            <mxPoint x="-438" y="1390" as="targetPoint" />
          </mxGeometry>
        </mxCell>
        <mxCell id="SrXy7MAG5ZEmLaUpLs6j-73" value="" style="endArrow=none;dashed=1;html=1;rounded=1;labelBackgroundColor=none;fontColor=default;strokeColor=#A8201A;" edge="1" parent="1">
          <mxGeometry width="50" height="50" relative="1" as="geometry">
            <mxPoint x="-620" y="1430" as="sourcePoint" />
            <mxPoint x="-440" y="1430" as="targetPoint" />
          </mxGeometry>
        </mxCell>
        <mxCell id="SrXy7MAG5ZEmLaUpLs6j-74" value="" style="endArrow=classic;html=1;rounded=1;edgeStyle=orthogonalEdgeStyle;labelBackgroundColor=none;fontColor=default;strokeColor=#A8201A;" edge="1" parent="1">
          <mxGeometry width="50" height="50" relative="1" as="geometry">
            <mxPoint x="-436" y="1410" as="sourcePoint" />
            <mxPoint x="-396" y="1376" as="targetPoint" />
            <Array as="points">
              <mxPoint x="-416" y="1376" />
            </Array>
          </mxGeometry>
        </mxCell>
        <mxCell id="SrXy7MAG5ZEmLaUpLs6j-75" value="Modal detalhe Detalhe Notificação" style="text;html=1;align=center;verticalAlign=middle;resizable=0;points=[];autosize=1;strokeColor=none;fillColor=none;labelBackgroundColor=none;rounded=1;fontColor=#143642;" vertex="1" parent="1">
          <mxGeometry x="-405" y="1360" width="210" height="30" as="geometry" />
        </mxCell>
        <mxCell id="SrXy7MAG5ZEmLaUpLs6j-76" value="Fechar" style="text;html=1;align=center;verticalAlign=middle;resizable=0;points=[];autosize=1;strokeColor=none;fillColor=none;labelBackgroundColor=none;rounded=1;fontColor=#143642;" vertex="1" parent="1">
          <mxGeometry x="-324" y="1390" width="60" height="30" as="geometry" />
        </mxCell>
        <mxCell id="SrXy7MAG5ZEmLaUpLs6j-77" value="" style="endArrow=none;html=1;rounded=1;labelBackgroundColor=none;fontColor=default;strokeColor=#A8201A;" edge="1" parent="1">
          <mxGeometry width="50" height="50" relative="1" as="geometry">
            <mxPoint x="-385" y="1389" as="sourcePoint" />
            <mxPoint x="-195" y="1389" as="targetPoint" />
          </mxGeometry>
        </mxCell>
        <mxCell id="SrXy7MAG5ZEmLaUpLs6j-78" value="" style="endArrow=none;dashed=1;html=1;rounded=1;labelBackgroundColor=none;fontColor=default;strokeColor=#A8201A;" edge="1" parent="1">
          <mxGeometry width="50" height="50" relative="1" as="geometry">
            <mxPoint x="-374" y="1431" as="sourcePoint" />
            <mxPoint x="-200" y="1431" as="targetPoint" />
          </mxGeometry>
        </mxCell>
        <mxCell id="SrXy7MAG5ZEmLaUpLs6j-79" value="" style="endArrow=none;dashed=1;html=1;rounded=1;labelBackgroundColor=none;fontColor=default;strokeColor=#A8201A;" edge="1" parent="1">
          <mxGeometry width="50" height="50" relative="1" as="geometry">
            <mxPoint x="-840" y="1413" as="sourcePoint" />
            <mxPoint x="-670" y="1413" as="targetPoint" />
          </mxGeometry>
        </mxCell>
        <mxCell id="SrXy7MAG5ZEmLaUpLs6j-80" value="Detalhe notificação" style="text;html=1;align=center;verticalAlign=middle;resizable=0;points=[];autosize=1;strokeColor=none;fillColor=none;labelBackgroundColor=none;rounded=1;fontColor=#143642;" vertex="1" parent="1">
          <mxGeometry x="-604.5" y="1396" width="130" height="30" as="geometry" />
        </mxCell>
        <mxCell id="SrXy7MAG5ZEmLaUpLs6j-81" value="" style="endArrow=none;html=1;rounded=1;labelBackgroundColor=none;fontColor=default;strokeColor=#A8201A;" edge="1" parent="1">
          <mxGeometry width="50" height="50" relative="1" as="geometry">
            <mxPoint x="-180" y="1415" as="sourcePoint" />
            <mxPoint x="-60" y="1320" as="targetPoint" />
            <Array as="points">
              <mxPoint x="-60" y="1415" />
            </Array>
          </mxGeometry>
        </mxCell>
        <mxCell id="SrXy7MAG5ZEmLaUpLs6j-88" value="" style="endArrow=classic;html=1;strokeColor=#A8201A;fontColor=#143642;fillColor=#FAE5C7;curved=1;" edge="1" parent="1">
          <mxGeometry width="50" height="50" relative="1" as="geometry">
            <mxPoint x="-960" y="245" as="sourcePoint" />
            <mxPoint x="-960" y="270" as="targetPoint" />
            <Array as="points">
              <mxPoint x="-960" y="240" />
              <mxPoint x="-920" y="260" />
            </Array>
          </mxGeometry>
        </mxCell>
      </root>
    </mxGraphModel>
  </diagram>
</mxfile>
